<?xml version="1.0" encoding="utf-8"?>
<!-- Generator: Adobe Illustrator 27.0.1, SVG Export Plug-In . SVG Version: 6.00 Build 0)  -->
<svg version="1.1" id="Layer_1" xmlns="http://www.w3.org/2000/svg" xmlns:xlink="http://www.w3.org/1999/xlink" x="0px" y="0px"
	 viewBox="0 0 682.43 159.36" style="enable-background:new 0 0 682.43 159.36;" xml:space="preserve">
<style type="text/css">
	.st0{fill:#567B91;}
	.st1{fill:#567A91;}
	.st2{fill:#ED1A38;}
</style>
<g>
	<g>
		<path class="st0" d="M671.43,24.94h-2.3c-0.45,0-0.78-0.18-0.99-0.53l-3.7-5.34c-0.12-0.18-0.26-0.32-0.41-0.4
			c-0.15-0.08-0.37-0.12-0.66-0.12h-1.43v6.38h-2.58V9.09h4.67c1.04,0,1.94,0.11,2.69,0.32c0.75,0.21,1.37,0.52,1.85,0.91
			c0.48,0.39,0.84,0.86,1.07,1.41c0.23,0.55,0.35,1.16,0.35,1.84c0,0.55-0.08,1.06-0.25,1.54c-0.17,0.48-0.4,0.91-0.72,1.3
			c-0.31,0.39-0.7,0.73-1.15,1.01c-0.45,0.29-0.97,0.51-1.55,0.67c0.32,0.19,0.59,0.46,0.81,0.8L671.43,24.94z M663.97,16.69
			c0.59,0,1.1-0.07,1.54-0.21c0.44-0.14,0.81-0.34,1.1-0.6c0.29-0.26,0.51-0.56,0.66-0.92c0.15-0.36,0.22-0.75,0.22-1.18
			c0-0.87-0.29-1.53-0.86-1.98c-0.57-0.45-1.44-0.68-2.6-0.68h-2.09v5.58H663.97z"/>
	</g>
	<path class="st0" d="M664.85,0c-9.71,0-17.58,7.87-17.58,17.58s7.87,17.58,17.58,17.58c9.71,0,17.58-7.87,17.58-17.58
		S674.56,0,664.85,0z M664.85,32.85c-8.43,0-15.27-6.84-15.27-15.27s6.84-15.27,15.27-15.27c8.43,0,15.27,6.84,15.27,15.27
		S673.28,32.85,664.85,32.85z"/>
</g>
<g>
	<g>
		<polygon class="st1" points="105.41,103.32 105.41,159.35 49.39,159.35 		"/>
		<polygon class="st1" points="0,53.94 56.04,53.94 0,109.97 		"/>
		<polygon class="st2" points="0,1.23 158.12,1.23 158.12,159.35 118.59,159.35 118.59,71.51 30.75,159.35 0,159.35 0,128.6 
			87.84,40.76 0,40.76 		"/>
	</g>
	<path class="st1" d="M245.54,3.11c1.29-1.61,1.82-1.82,3.97-1.82H264v71.16h-18.35v-43.9h-0.11l-15.13,18.78h-10.63
		c-1.61,0-2.36-0.32-3.22-1.4l-13.74-17.39h-0.11v43.9h-18.25V1.28h15.46c2.15,0,2.68,0.22,3.97,1.82l20.71,25.87h0.32L245.54,3.11z
		 M297.61,1.28h19c1.29,0,1.72,0.11,2.25,1.61l28.33,69.55h-18.25c-1.29,0-1.82-0.21-2.36-1.61l-3.86-10.2h-28.44l-3.43,10.2
		c-0.43,1.4-0.97,1.61-2.25,1.61H271L297.61,1.28z M307.81,19.42c-0.75,3.86-2.9,10.41-6.33,20.29l-1.93,6.01h17.39l-2.15-6.01
		c-3.97-10.52-6.01-16.31-6.87-20.29H307.81z M354.2,72.44V1.28h25.97c14.6,0,25.97,3.11,33.49,10.63
		c5.69,5.69,9.02,14.06,9.02,25.01c0,10.95-3.33,19.21-9.02,24.9c-7.51,7.51-18.89,10.63-33.49,10.63H354.2z M379.63,56.02
		c8.26,0,14.06-0.86,17.92-4.29c3.33-2.9,5.26-7.51,5.26-14.81c0-7.3-1.93-12.02-5.26-14.92c-3.86-3.43-9.66-4.29-17.92-4.29h-6.33
		v38.32H379.63z M488.5,1.28v15.78h-36.17v11.7h32.95v15.46h-32.95v12.45h37.14v15.78h-56.24V1.28H488.5z M546.34,72.44h-19.1V1.28
		h19.1V72.44z M579.05,1.28c1.72,0,2.36,0.22,3.33,1.4l20.5,25.54c4.94,6.23,9.77,12.45,11.7,15.24h0.11V1.28h17.82v71.16h-13.63
		c-1.72,0-2.36-0.21-3.33-1.39l-20.71-25.76c-4.51-5.58-9.77-12.13-11.81-15.24h-0.11v42.39H565.1V1.28H579.05z M184.47,88.2h33.38
		c10.41,0,16.31,1.61,20.5,5.69c3.11,3.01,4.83,7.62,4.83,12.34c0,5.69-2.79,11.06-6.55,14.49c6.55,2.79,11.06,8.48,11.06,16.74
		c0,6.55-2.15,11.59-5.8,15.13c-4.72,4.62-12.34,6.76-22.86,6.76h-34.56V88.2z M220.43,116.64c1.29,0,2.15-0.21,2.79-1.29
		c0.75-1.18,1.18-3.76,1.18-5.47c0-2.15-0.43-3.65-1.39-4.61c-1.18-1.18-3.01-1.5-6.01-1.5h-13.42v12.88H220.43z M203.58,143.8
		h16.74c3.22,0,5.15-0.43,6.33-1.61c0.97-0.97,1.61-2.9,1.61-5.37c0-2.25-0.54-3.65-1.5-4.61c-1.18-1.18-3.01-1.61-6.44-1.61h-16.74
		V143.8z M282.3,159.36h-19.1V88.2h31.13c11.91,0,19.75,1.93,24.69,6.76c3.86,3.86,6.12,9.55,6.12,16.64
		c0,10.09-5.26,17.82-11.81,22l15.99,25.76h-19c-1.72,0-2.25-0.21-3.22-1.82l-10.84-18.46c-1.18-1.93-1.4-2.15-3.43-2.15H282.3
		V159.36z M300.33,121.79c1.82,0,2.79-0.32,3.86-1.93c1.18-1.82,1.61-5.15,1.61-7.3c0-2.58-0.86-5.15-2.04-6.33
		c-1.72-1.61-4.4-2.04-9.12-2.04H282.3v17.6H300.33z M362.11,159.36H343V88.2h19.1V159.36z M397.89,103.98h-23.83V88.2h66.76v15.78
		h-23.83v55.38h-19.1V103.98z M465.89,88.2h19c1.29,0,1.72,0.11,2.25,1.61l28.33,69.55h-18.25c-1.29,0-1.82-0.21-2.36-1.61
		l-3.86-10.2h-28.44l-3.43,10.2c-0.43,1.4-0.97,1.61-2.25,1.61h-17.6L465.89,88.2z M476.09,106.34c-0.75,3.86-2.9,10.41-6.33,20.29
		l-1.93,6.01h17.39l-2.15-6.01c-3.97-10.52-6.01-16.31-6.87-20.29H476.09z M546.38,159.36h-19.1V88.2h19.1V159.36z M579.1,88.2
		c1.72,0,2.36,0.22,3.33,1.4l20.5,25.54c4.94,6.23,9.77,12.45,11.7,15.24h0.11V88.2h17.82v71.16h-13.63c-1.72,0-2.36-0.21-3.33-1.4
		l-20.71-25.76c-4.51-5.58-9.77-12.13-11.81-15.24h-0.11v42.4h-17.82V88.2H579.1z"/>
</g>
</svg>
