<?xml version="1.0" encoding="utf-8"?>
<!-- Generator: Adobe Illustrator 27.0.0, SVG Export Plug-In . SVG Version: 6.00 Build 0)  -->
<svg version="1.1" id="Layer_1" xmlns="http://www.w3.org/2000/svg" xmlns:xlink="http://www.w3.org/1999/xlink" x="0px" y="0px"
	 width="300px" height="50px" viewBox="0 0 300 50" style="enable-background:new 0 0 300 50;" xml:space="preserve">
<style type="text/css">
	.st0{fill:#FFC439;}
	.st1{fill:#253B80;}
	.st2{fill:#179BD7;}
	.st3{fill:#222D65;}
</style>
<rect class="st0" width="300" height="50"/>
<g>
	<g>
		<path class="st1" d="M204.3,16.7h-6.8c-0.5,0-0.9,0.3-0.9,0.8L193.8,35c-0.1,0.3,0.2,0.7,0.6,0.7h3.3c0.5,0,0.9-0.3,0.9-0.8
			l0.7-4.7c0.1-0.5,0.5-0.8,0.9-0.8h2.2c4.5,0,7.1-2.2,7.8-6.5c0.3-1.9,0-3.4-0.9-4.4C208.3,17.3,206.6,16.7,204.3,16.7z
			 M205.1,23.1c-0.4,2.5-2.2,2.5-4.1,2.5h-1l0.7-4.6c0-0.3,0.3-0.5,0.6-0.5h0.5c1.2,0,2.4,0,3,0.7C205.1,21.6,205.2,22.2,205.1,23.1
			z"/>
		<path class="st1" d="M224.8,23h-3.3c-0.3,0-0.5,0.2-0.6,0.5l-0.1,0.9l-0.2-0.3c-0.7-1-2.3-1.4-3.9-1.4c-3.6,0-6.7,2.7-7.3,6.6
			c-0.3,1.9,0.1,3.8,1.2,5c1,1.2,2.4,1.7,4.1,1.7c2.9,0,4.5-1.9,4.5-1.9l-0.1,0.9c-0.1,0.3,0.2,0.7,0.6,0.7h2.9
			c0.5,0,0.9-0.3,0.9-0.8l1.8-11.2C225.4,23.3,225.1,23,224.8,23z M220.2,29.4c-0.3,1.9-1.8,3.1-3.7,3.1c-1,0-1.7-0.3-2.2-0.9
			c-0.5-0.6-0.7-1.4-0.5-2.3c0.3-1.9,1.8-3.2,3.7-3.2c0.9,0,1.7,0.3,2.2,0.9C220.1,27.6,220.3,28.5,220.2,29.4z"/>
		<path class="st1" d="M242.2,23h-3.3c-0.3,0-0.6,0.2-0.8,0.4l-4.5,6.7l-1.9-6.4c-0.1-0.4-0.5-0.7-0.9-0.7h-3.2
			c-0.4,0-0.7,0.4-0.5,0.8l3.6,10.6l-3.4,4.8c-0.3,0.4,0,0.9,0.5,0.9h3.3c0.3,0,0.6-0.2,0.8-0.4l10.9-15.8
			C242.9,23.5,242.7,23,242.2,23z"/>
		<path class="st2" d="M253.1,16.7h-6.8c-0.5,0-0.9,0.3-0.9,0.8L242.6,35c-0.1,0.3,0.2,0.7,0.6,0.7h3.5c0.3,0,0.6-0.2,0.7-0.6l0.8-5
			c0.1-0.5,0.5-0.8,0.9-0.8h2.2c4.5,0,7.1-2.2,7.8-6.5c0.3-1.9,0-3.4-0.9-4.4C257.1,17.3,255.4,16.7,253.1,16.7z M253.9,23.1
			c-0.4,2.5-2.2,2.5-4.1,2.5h-1l0.7-4.6c0-0.3,0.3-0.5,0.6-0.5h0.5c1.2,0,2.4,0,3,0.7C253.9,21.6,254,22.2,253.9,23.1z"/>
		<path class="st2" d="M273.5,23h-3.3c-0.3,0-0.5,0.2-0.6,0.5l-0.1,0.9l-0.2-0.3c-0.7-1-2.3-1.4-3.9-1.4c-3.6,0-6.7,2.7-7.3,6.6
			c-0.3,1.9,0.1,3.8,1.2,5c1,1.2,2.4,1.7,4.1,1.7c2.9,0,4.5-1.9,4.5-1.9l-0.1,0.9c-0.1,0.3,0.2,0.7,0.6,0.7h2.9
			c0.5,0,0.9-0.3,0.9-0.8l1.8-11.2C274.2,23.3,273.9,23,273.5,23z M269,29.4c-0.3,1.9-1.8,3.1-3.7,3.1c-0.9,0-1.7-0.3-2.2-0.9
			c-0.5-0.6-0.7-1.4-0.5-2.3c0.3-1.9,1.8-3.2,3.7-3.2c0.9,0,1.7,0.3,2.2,0.9C268.9,27.6,269.1,28.5,269,29.4z"/>
		<path class="st2" d="M277.4,17.1L274.6,35c-0.1,0.3,0.2,0.7,0.6,0.7h2.8c0.5,0,0.9-0.3,0.9-0.8l2.8-17.5c0.1-0.3-0.2-0.7-0.6-0.7
			H278C277.7,16.7,277.5,16.9,277.4,17.1z"/>
		<path class="st1" d="M165.4,39.1l0.5-3.3l-1.2,0h-5.6l3.9-24.5c0-0.1,0.1-0.1,0.1-0.2c0.1,0,0.1-0.1,0.2-0.1h9.4
			c3.1,0,5.3,0.6,6.4,1.9c0.5,0.6,0.9,1.2,1,1.9c0.2,0.7,0.2,1.6,0,2.6l0,0.1v0.7l0.5,0.3c0.4,0.2,0.8,0.5,1.1,0.8
			c0.5,0.5,0.7,1.2,0.9,1.9c0.1,0.8,0.1,1.7-0.1,2.8c-0.2,1.2-0.6,2.3-1.2,3.2c-0.5,0.8-1.1,1.5-1.8,2c-0.7,0.5-1.5,0.9-2.5,1.1
			c-0.9,0.2-1.9,0.4-3.1,0.4h-0.7c-0.5,0-1,0.2-1.4,0.5c-0.4,0.3-0.7,0.8-0.7,1.3l-0.1,0.3l-0.9,5.9l0,0.2c0,0.1,0,0.1-0.1,0.1
			c0,0-0.1,0-0.1,0C169.9,39.1,165.4,39.1,165.4,39.1z"/>
		<path class="st2" d="M181.2,17.6L181.2,17.6L181.2,17.6c0,0.2-0.1,0.4-0.1,0.6c-1.2,6.4-5.5,8.5-10.9,8.5h-2.8
			c-0.7,0-1.2,0.5-1.3,1.1l0,0l0,0l-1.4,8.9l-0.4,2.5c-0.1,0.4,0.3,0.8,0.7,0.8h4.9c0.6,0,1.1-0.4,1.2-1l0-0.2L172,33l0.1-0.3
			c0.1-0.6,0.6-1,1.2-1h0.7c4.7,0,8.4-1.9,9.5-7.5c0.5-2.3,0.2-4.3-1-5.6C182.1,18.2,181.7,17.9,181.2,17.6z"/>
		<path class="st3" d="M179.9,17.1c-0.2-0.1-0.4-0.1-0.6-0.1c-0.2,0-0.4-0.1-0.6-0.1c-0.7-0.1-1.6-0.2-2.4-0.2h-7.4
			c-0.2,0-0.4,0-0.5,0.1c-0.3,0.2-0.6,0.5-0.7,0.9l-1.6,9.9l0,0.3c0.1-0.7,0.7-1.1,1.3-1.1h2.8c5.4,0,9.6-2.2,10.9-8.5
			c0-0.2,0.1-0.4,0.1-0.5c-0.3-0.2-0.7-0.3-1-0.4C180.1,17.1,180,17.1,179.9,17.1z"/>
		<path class="st1" d="M167.7,17.6c0.1-0.4,0.3-0.7,0.7-0.9c0.2-0.1,0.3-0.1,0.5-0.1h7.4c0.9,0,1.7,0.1,2.4,0.2
			c0.2,0,0.4,0.1,0.6,0.1c0.2,0,0.4,0.1,0.6,0.1c0.1,0,0.2,0.1,0.3,0.1c0.4,0.1,0.7,0.3,1,0.4c0.4-2.3,0-3.9-1.3-5.4
			c-1.4-1.6-3.9-2.3-7.2-2.3h-9.4c-0.7,0-1.2,0.5-1.3,1.1l-3.9,24.8c-0.1,0.5,0.3,0.9,0.8,0.9h5.8l1.5-9.2L167.7,17.6z"/>
	</g>
	<g>
		<g>
			<path class="st1" d="M27.4,26.8l2.6,0.8c-0.4,1.5-1.1,2.6-2,3.3c-0.9,0.7-2.1,1.1-3.6,1.1c-1.8,0-3.3-0.6-4.4-1.8s-1.7-2.9-1.7-5
				c0-2.2,0.6-4,1.7-5.2c1.2-1.2,2.7-1.9,4.6-1.9c1.6,0,3,0.5,4,1.5c0.6,0.6,1.1,1.4,1.4,2.5l-2.7,0.6c-0.2-0.7-0.5-1.3-1-1.7
				c-0.5-0.4-1.1-0.6-1.8-0.6c-1,0-1.8,0.4-2.4,1.1c-0.6,0.7-0.9,1.9-0.9,3.5c0,1.7,0.3,2.9,0.9,3.6c0.6,0.7,1.4,1.1,2.4,1.1
				c0.7,0,1.3-0.2,1.9-0.7C26.8,28.5,27.2,27.8,27.4,26.8z"/>
			<path class="st1" d="M34.9,18.3v5c0.8-1,1.8-1.5,3-1.5c0.6,0,1.1,0.1,1.6,0.3s0.8,0.5,1.1,0.8s0.4,0.7,0.5,1.1
				c0.1,0.4,0.1,1.1,0.1,1.9v5.7h-2.6v-5.2c0-1,0-1.7-0.1-1.9S38.2,24.1,38,24c-0.2-0.2-0.6-0.2-0.9-0.2c-0.4,0-0.8,0.1-1.1,0.3
				s-0.6,0.5-0.7,0.9s-0.2,1-0.2,1.9v4.9h-2.6V18.3H34.9z"/>
			<path class="st1" d="M49.5,28.6l2.6,0.4c-0.3,0.9-0.9,1.7-1.6,2.2c-0.7,0.5-1.6,0.7-2.7,0.7c-1.7,0-3-0.6-3.8-1.7
				c-0.6-0.9-1-2-1-3.4c0-1.6,0.4-2.9,1.3-3.8c0.8-0.9,1.9-1.4,3.2-1.4c1.5,0,2.6,0.5,3.4,1.4s1.2,2.4,1.2,4.4h-6.5
				c0,0.8,0.2,1.4,0.6,1.8c0.4,0.4,0.9,0.6,1.5,0.6c0.4,0,0.7-0.1,1-0.3S49.4,29.1,49.5,28.6z M49.7,26c0-0.7-0.2-1.3-0.6-1.7
				s-0.8-0.6-1.3-0.6c-0.6,0-1,0.2-1.4,0.6s-0.5,1-0.5,1.7H49.7z"/>
			<path class="st1" d="M62.8,24.9l-2.5,0.5c-0.1-0.5-0.3-0.9-0.6-1.1c-0.3-0.3-0.7-0.4-1.2-0.4c-0.6,0-1.2,0.2-1.5,0.7
				c-0.4,0.4-0.6,1.2-0.6,2.2c0,1.2,0.2,2,0.6,2.5c0.4,0.5,0.9,0.7,1.6,0.7c0.5,0,0.9-0.1,1.2-0.4c0.3-0.3,0.5-0.8,0.7-1.4l2.5,0.4
				c-0.3,1.2-0.8,2-1.5,2.6c-0.7,0.6-1.8,0.9-3,0.9c-1.4,0-2.6-0.5-3.4-1.4c-0.8-0.9-1.3-2.1-1.3-3.7c0-1.6,0.4-2.9,1.3-3.8
				s2-1.3,3.5-1.3c1.2,0,2.1,0.3,2.8,0.8C62,23,62.5,23.8,62.8,24.9z"/>
			<path class="st1" d="M64.7,31.7V18.3h2.6v7.2l3-3.4h3.2l-3.3,3.6l3.6,6.2H71l-2.5-4.4l-1.2,1.3v3.1H64.7z"/>
			<path class="st1" d="M74.7,26.7c0-0.9,0.2-1.7,0.6-2.5c0.4-0.8,1-1.4,1.8-1.8s1.6-0.6,2.6-0.6c1.5,0,2.7,0.5,3.6,1.4
				s1.4,2.2,1.4,3.6c0,1.5-0.5,2.7-1.4,3.7S81.2,32,79.7,32c-0.9,0-1.7-0.2-2.6-0.6c-0.8-0.4-1.4-1-1.9-1.8S74.7,27.8,74.7,26.7z
				 M77.3,26.9c0,1,0.2,1.7,0.7,2.2c0.5,0.5,1,0.8,1.7,0.8c0.7,0,1.2-0.3,1.7-0.8c0.5-0.5,0.7-1.3,0.7-2.2c0-1-0.2-1.7-0.7-2.2
				c-0.5-0.5-1-0.8-1.7-0.8c-0.7,0-1.2,0.3-1.7,0.8C77.6,25.1,77.3,25.9,77.3,26.9z"/>
			<path class="st1" d="M93.2,31.7v-1.5c-0.4,0.5-0.8,0.9-1.4,1.2C91.2,31.8,90.6,32,90,32c-0.7,0-1.2-0.1-1.8-0.4
				c-0.5-0.3-0.9-0.7-1.1-1.2c-0.2-0.5-0.3-1.2-0.3-2.2V22h2.6v4.5c0,1.4,0,2.2,0.1,2.5c0.1,0.3,0.3,0.6,0.5,0.7
				c0.3,0.2,0.6,0.3,1,0.3c0.4,0,0.8-0.1,1.2-0.4c0.3-0.2,0.6-0.5,0.7-0.9c0.1-0.4,0.2-1.2,0.2-2.6V22h2.6v9.8H93.2z"/>
			<path class="st1" d="M102.8,22V24H101V28c0,0.8,0,1.3,0.1,1.4s0.1,0.2,0.2,0.3c0.1,0.1,0.3,0.1,0.4,0.1c0.2,0,0.6-0.1,1-0.2
				l0.2,2c-0.6,0.3-1.3,0.4-2,0.4c-0.5,0-0.9-0.1-1.3-0.2s-0.6-0.4-0.8-0.6c-0.2-0.2-0.3-0.6-0.4-1c-0.1-0.3-0.1-0.9-0.1-1.8V24
				h-1.2V22h1.2V20l2.6-1.5V22H102.8z"/>
			<path class="st1" d="M111.6,31.7l-3.1-9.8h2.5l1.8,6.4l1.7-6.4h2.5l1.6,6.4l1.9-6.4h2.5l-3.1,9.8h-2.5l-1.7-6.3l-1.7,6.3H111.6z"
				/>
			<path class="st1" d="M124.4,20.7v-2.4h2.6v2.4H124.4z M124.4,31.7V22h2.6v9.8H124.4z"/>
			<path class="st1" d="M134.1,22V24h-1.8V28c0,0.8,0,1.3,0.1,1.4s0.1,0.2,0.2,0.3c0.1,0.1,0.3,0.1,0.4,0.1c0.2,0,0.6-0.1,1-0.2
				l0.2,2c-0.6,0.3-1.3,0.4-2,0.4c-0.5,0-0.9-0.1-1.3-0.2s-0.6-0.4-0.8-0.6c-0.2-0.2-0.3-0.6-0.4-1c-0.1-0.3-0.1-0.9-0.1-1.8V24
				h-1.2V22h1.2V20l2.6-1.5V22H134.1z"/>
			<path class="st1" d="M138.5,18.3v5c0.8-1,1.8-1.5,3-1.5c0.6,0,1.1,0.1,1.6,0.3s0.8,0.5,1.1,0.8s0.4,0.7,0.5,1.1
				c0.1,0.4,0.1,1.1,0.1,1.9v5.7h-2.6v-5.2c0-1,0-1.7-0.1-1.9s-0.3-0.5-0.5-0.7c-0.2-0.2-0.6-0.2-0.9-0.2c-0.4,0-0.8,0.1-1.1,0.3
				s-0.6,0.5-0.7,0.9s-0.2,1-0.2,1.9v4.9h-2.6V18.3H138.5z"/>
		</g>
	</g>
</g>
</svg>
