<?xml version="1.0" encoding="utf-8"?>
<!-- Generator: Adobe Illustrator 27.0.0, SVG Export Plug-In . SVG Version: 6.00 Build 0)  -->
<svg version="1.1" id="Layer_1" xmlns="http://www.w3.org/2000/svg" xmlns:xlink="http://www.w3.org/1999/xlink" x="0px" y="0px"
	 width="300px" height="55px" viewBox="0 0 300 55" style="enable-background:new 0 0 300 55;" xml:space="preserve">
<style type="text/css">
	.st0{fill:#635BFF;}
	.st1{fill:#FFFFFF;stroke:#000000;stroke-width:0.75;}
	.st2{fill:#0E4595;}
	.st3{fill:#F2AE14;}
	.st4{fill:#FFFFFF;stroke:#000000;}
	.st5{fill:#D9222A;}
	.st6{fill:#EE9F2D;}
	.st7{fill:#FFFFFF;}
	.st8{fill:#2557D6;}
</style>
<g>
	<path class="st0" d="M266.6,21.7c-1.9,0-3.8,0.7-5.2,2.1l-0.3-1.7h-5.8v31.4l6.6-1.4v-7.6c1.3,1.1,3,1.7,4.7,1.7
		c4.7,0,9-3.9,9-12.4C275.6,26,271.2,21.7,266.6,21.7z M265,40.3c-1.2,0.1-2.3-0.4-3.1-1.3V29c0.8-0.9,2-1.4,3.2-1.3
		c2.4,0,4.1,2.7,4.1,6.3C269.2,37.5,267.5,40.3,265,40.3z"/>
	<path class="st0" d="M287.8,21.7c-6.4,0-10.2,5.5-10.2,12.4c0,8.2,4.6,12.3,11.1,12.3c2.5,0,5.1-0.6,7.3-1.8v-5.5
		c-2,1-4.3,1.5-6.6,1.5c-2.6,0-4.9-0.9-5.2-4.1h13.1c0-0.4,0-1.8,0-2.4C297.5,27.2,294.2,21.7,287.8,21.7z M284.2,31.6
		c0-3.1,1.9-4.3,3.5-4.3s3.4,1.3,3.4,4.3H284.2z"/>
	<path class="st0" d="M237.5,24l-0.4-2h-5.6v23.6h6.5v-16c1.2-1.5,3.2-2,5-1.4V22C240.8,21.2,238.5,22.1,237.5,24z"/>
	<path class="st0" d="M204.6,29.1c0-1.1,0.9-1.5,2.3-1.5c2.3,0,4.5,0.6,6.6,1.7V23c-2.1-0.8-4.3-1.3-6.6-1.2c-5.4,0-8.9,2.9-8.9,7.7
		c0,7.5,10.1,6.3,10.1,9.5c0,1.3-1.1,1.7-2.4,1.7c-2.6-0.2-5.1-0.9-7.3-2.2V45c2.3,1,4.8,1.6,7.3,1.6c5.5,0,9.3-2.8,9.3-7.7
		C214.7,30.7,204.6,32.2,204.6,29.1z"/>
	<path class="st0" d="M223.6,16.4l-6.4,1.4v21.7c-0.1,3.7,2.8,6.8,6.5,7c0.1,0,0.2,0,0.4,0c1.6,0.1,3.2-0.2,4.6-0.9v-5.5
		c-0.9,0.4-5,1.6-5-2.4V28h5v-5.7h-5L223.6,16.4z"/>
	<polygon class="st0" points="245.3,20 252,18.6 252,13.3 245.3,14.7 	"/>
	<rect x="245.3" y="22.2" class="st0" width="6.6" height="23.4"/>
</g>
<g>
	<path class="st1" d="M9.5,12.4h42c1.3,0,2.4,1.1,2.4,2.4V40c0,1.3-1.1,2.4-2.4,2.4h-42c-1.3,0-2.4-1.1-2.4-2.4V14.8
		C7.1,13.5,8.2,12.4,9.5,12.4z"/>
	<g>
		<path class="st2" d="M24.8,33.2l2-11.4h3.1l-2,11.4H24.8z M39.2,22c-0.6-0.2-1.6-0.5-2.8-0.5c-3.1,0-5.3,1.5-5.3,3.8
			c0,1.6,1.6,2.6,2.7,3.1c1.2,0.6,1.6,0.9,1.6,1.4c0,0.8-1,1.1-1.9,1.1c-1.2,0-1.9-0.2-2.9-0.6l-0.4-0.2l-0.4,2.6
			c0.7,0.3,2.1,0.6,3.5,0.6c3.3,0,5.4-1.5,5.4-3.9c0-1.3-0.8-2.3-2.6-3.1c-1.1-0.5-1.8-0.9-1.8-1.4c0-0.5,0.6-1,1.8-1
			c1,0,1.8,0.2,2.3,0.4l0.3,0.1L39.2,22z M47.3,21.8h-2.4c-0.7,0-1.3,0.2-1.6,0.9l-4.6,10.5h3.3c0,0,0.5-1.4,0.7-1.7
			c0.4,0,3.5,0,4,0c0.1,0.4,0.4,1.7,0.4,1.7h2.9L47.3,21.8L47.3,21.8z M43.4,29.2c0.3-0.7,1.2-3.2,1.2-3.2c0,0,0.3-0.7,0.4-1.1
			l0.2,1c0,0,0.6,2.7,0.7,3.3L43.4,29.2L43.4,29.2z M22.2,21.8l-3.1,7.8L18.8,28c-0.6-1.8-2.3-3.8-4.3-4.8l2.8,10l3.3,0l4.9-11.4
			L22.2,21.8"/>
		<path class="st3" d="M16.3,21.8h-5l0,0.2c3.9,0.9,6.5,3.2,7.6,6l-1.1-5.3C17.5,22,17,21.8,16.3,21.8"/>
	</g>
</g>
<g>
	<path class="st4" d="M67.2,12.4h42c1.3,0,2.4,1.1,2.4,2.4V40c0,1.3-1.1,2.4-2.4,2.4h-42c-1.3,0-2.4-1.1-2.4-2.4V14.8
		C64.8,13.5,65.8,12.4,67.2,12.4z"/>
	<path class="st5" d="M91.7,27.4c0,5.9-4.8,10.8-10.8,10.8c-5.9,0-10.8-4.8-10.8-10.8c0-5.9,4.8-10.8,10.8-10.8
		C86.9,16.7,91.7,21.5,91.7,27.4"/>
	<path class="st6" d="M95.4,16.7c-2.8,0-5.3,1.1-7.2,2.8c-0.4,0.4-0.8,0.7-1.1,1.1h2.2c0.3,0.4,0.6,0.7,0.8,1.1h-3.8
		c-0.2,0.4-0.4,0.7-0.6,1.1h5.1c0.2,0.4,0.3,0.8,0.5,1.1h-6c-0.1,0.4-0.2,0.8-0.3,1.1h6.6c0.2,0.7,0.2,1.5,0.2,2.3
		c0,1.2-0.2,2.3-0.6,3.4h-6c0.1,0.4,0.3,0.8,0.5,1.1h5.1c-0.2,0.4-0.4,0.8-0.6,1.1h-3.8c0.2,0.4,0.5,0.8,0.8,1.1h2.2
		c-0.3,0.4-0.7,0.8-1.1,1.1c1.9,1.7,4.4,2.8,7.2,2.8c5.9,0,10.8-4.8,10.8-10.8C106.2,21.5,101.3,16.7,95.4,16.7"/>
	<path d="M104.7,33.4c0-0.2,0.2-0.3,0.3-0.3c0.2,0,0.3,0.2,0.3,0.3c0,0.2-0.2,0.3-0.3,0.3C104.9,33.8,104.7,33.6,104.7,33.4z
		 M105.1,33.7c0.1,0,0.3-0.1,0.3-0.3c0-0.1-0.1-0.3-0.3-0.3h0c-0.1,0-0.3,0.1-0.3,0.3v0C104.8,33.6,104.9,33.7,105.1,33.7
		C105.1,33.7,105.1,33.7,105.1,33.7z M105,33.6L105,33.6l-0.1-0.3h0.1c0,0,0.1,0,0.1,0c0,0,0,0,0,0.1c0,0,0,0.1-0.1,0.1l0.1,0.1
		L105,33.6l0.1-0.1H105L105,33.6L105,33.6z M105,33.4L105,33.4C105.1,33.4,105.1,33.4,105,33.4c0.1,0,0.1,0,0.1,0
		C105.1,33.4,105.1,33.4,105,33.4C105.1,33.3,105.1,33.4,105,33.4L105,33.4L105,33.4z M78.4,28.6c-0.1,0-0.2,0-0.3,0
		c-0.7,0-1,0.2-1,0.7c0,0.3,0.2,0.5,0.4,0.5C78.1,29.7,78.4,29.3,78.4,28.6z M79.3,30.6h-1l0-0.5c-0.3,0.4-0.7,0.5-1.2,0.5
		c-0.6,0-1.1-0.5-1.1-1.2c0-1.1,0.8-1.7,2.1-1.7c0.1,0,0.3,0,0.5,0c0-0.1,0-0.2,0-0.3c0-0.3-0.2-0.4-0.8-0.4c-0.6,0-1,0.1-1.2,0.2
		c0-0.1,0.2-1,0.2-1c0.6-0.2,1-0.2,1.4-0.2c1,0,1.5,0.5,1.5,1.3c0,0.2,0,0.5-0.1,0.9C79.5,28.9,79.3,30.3,79.3,30.6L79.3,30.6z
		 M75.5,30.6h-1.2l0.7-4.2l-1.5,4.2h-0.8l-0.1-4.2L72,30.6h-1.1l0.9-5.5h1.7l0.1,3.1l1-3.1h1.9L75.5,30.6z M96.8,28.6
		c-0.1,0-0.2,0-0.3,0c-0.7,0-1,0.2-1,0.7c0,0.3,0.2,0.5,0.4,0.5C96.5,29.7,96.8,29.3,96.8,28.6z M97.7,30.6h-1l0-0.5
		c-0.3,0.4-0.7,0.5-1.2,0.5c-0.6,0-1.1-0.5-1.1-1.2c0-1.1,0.8-1.7,2.1-1.7c0.1,0,0.3,0,0.5,0c0-0.1,0-0.2,0-0.3
		c0-0.3-0.2-0.4-0.7-0.4c-0.6,0-1,0.1-1.2,0.2c0-0.1,0.2-1,0.2-1c0.6-0.2,1-0.2,1.4-0.2c1,0,1.5,0.5,1.5,1.3c0,0.2,0,0.5-0.1,0.9
		C97.9,28.9,97.7,30.3,97.7,30.6L97.7,30.6z M84.5,30.5c-0.3,0.1-0.6,0.1-0.8,0.1c-0.6,0-0.9-0.3-0.9-1c0-0.2,0.1-0.7,0.2-1.2
		c0.1-0.4,0.5-3,0.5-3h1.2l-0.1,0.7h0.7l-0.2,1.1h-0.7c-0.1,0.8-0.3,1.9-0.3,2c0,0.2,0.1,0.3,0.4,0.3c0.1,0,0.2,0,0.3,0L84.5,30.5z
		 M88,30.5c-0.4,0.1-0.8,0.2-1.2,0.2c-1.3,0-2-0.7-2-2c0-1.5,0.9-2.6,2-2.6c1,0,1.6,0.6,1.6,1.6c0,0.3,0,0.6-0.1,1.1H86
		c-0.1,0.6,0.3,0.9,1,0.9c0.4,0,0.8-0.1,1.2-0.3L88,30.5z M87.4,27.9c0-0.1,0.1-0.8-0.5-0.8c-0.4,0-0.6,0.3-0.7,0.8H87.4z M80,27.6
		c0,0.6,0.3,0.9,0.9,1.2c0.5,0.2,0.5,0.3,0.5,0.5c0,0.3-0.2,0.4-0.7,0.4c-0.3,0-0.7-0.1-1-0.2c0,0-0.2,1-0.2,1
		c0.3,0.1,0.5,0.1,1.2,0.1c1.2,0,1.8-0.5,1.8-1.5c0-0.6-0.2-1-0.8-1.2c-0.5-0.2-0.5-0.3-0.5-0.5c0-0.2,0.2-0.4,0.6-0.4
		c0.2,0,0.5,0,0.8,0.1l0.2-1c-0.3,0-0.8-0.1-1-0.1C80.4,26.1,80,26.7,80,27.6 M93.7,26.2c0.3,0,0.6,0.1,1,0.3l0.2-1.2
		c-0.2-0.1-0.8-0.5-1.3-0.5c-0.8,0-1.4,0.4-1.9,1c-0.7-0.2-1,0.2-1.3,0.7l-0.3,0.1c0-0.1,0-0.3,0-0.4h-1.1c-0.1,1.4-0.4,2.8-0.6,4.1
		l-0.1,0.3h1.2c0.2-1.3,0.3-2.1,0.4-2.6l0.4-0.2c0.1-0.2,0.3-0.3,0.7-0.3C91.1,27.7,91,28,91,28.3c0,1.5,0.8,2.4,2,2.4
		c0.3,0,0.6,0,1-0.2l0.2-1.2c-0.4,0.2-0.7,0.3-1,0.3c-0.7,0-1.1-0.5-1.1-1.3C92.2,27,92.9,26.2,93.7,26.2"/>
	<path class="st7" d="M75.9,30.3h-1.2l0.7-4.2l-1.5,4.2h-0.8L73,26.1l-0.7,4.2h-1.1l0.9-5.5h1.7l0,3.4l1.1-3.4h1.8L75.9,30.3z"/>
	<path d="M103.6,25.1l-0.3,1.6c-0.3-0.4-0.7-0.7-1.1-0.7c-0.6,0-1.1,0.4-1.5,1.1c-0.5-0.1-1-0.3-1-0.3l0,0c0-0.4,0.1-0.6,0.1-0.7
		h-1.1c-0.1,1.4-0.4,2.8-0.6,4.1l-0.1,0.3h1.2c0.2-1,0.3-1.9,0.4-2.6c0.4-0.4,0.6-0.7,1-0.7c-0.2,0.4-0.3,0.9-0.3,1.4
		c0,1.1,0.6,1.8,1.4,1.8c0.4,0,0.8-0.1,1.1-0.5l-0.1,0.4h1.1l0.9-5.5L103.6,25.1z M102.2,29.6c-0.4,0-0.6-0.3-0.6-0.9
		c0-0.9,0.4-1.5,0.9-1.5c0.4,0,0.6,0.3,0.6,0.9C103.1,29,102.7,29.6,102.2,29.6L102.2,29.6z"/>
	<path class="st7" d="M78.8,28.3c-0.1,0-0.2,0-0.3,0c-0.7,0-1,0.2-1,0.7c0,0.3,0.2,0.5,0.4,0.5C78.4,29.4,78.7,29,78.8,28.3z
		 M79.6,30.3h-1l0-0.5c-0.3,0.4-0.7,0.5-1.2,0.5c-0.6,0-1.1-0.5-1.1-1.2c0-1.1,0.8-1.7,2.1-1.7c0.1,0,0.3,0,0.5,0c0-0.1,0-0.2,0-0.3
		c0-0.3-0.2-0.4-0.7-0.4c-0.6,0-1,0.1-1.2,0.2c0-0.1,0.2-1,0.2-1c0.6-0.2,1-0.2,1.4-0.2c1,0,1.5,0.5,1.5,1.3c0,0.2,0,0.5-0.1,0.9
		C79.9,28.6,79.6,29.9,79.6,30.3L79.6,30.3z M95.3,25l-0.2,1.2c-0.4-0.2-0.7-0.3-1-0.3c-0.9,0-1.5,0.8-1.5,2c0,0.8,0.4,1.3,1.1,1.3
		c0.3,0,0.6-0.1,1-0.3l-0.2,1.2c-0.4,0.1-0.7,0.2-1,0.2c-1.3,0-2-0.9-2-2.4c0-2,1.1-3.3,2.6-3.3C94.5,24.7,95.1,24.9,95.3,25
		 M97.2,28.3c-0.1,0-0.2,0-0.3,0c-0.7,0-1,0.2-1,0.7c0,0.3,0.2,0.5,0.4,0.5C96.8,29.4,97.2,29,97.2,28.3z M98,30.3h-1l0-0.5
		c-0.3,0.4-0.7,0.5-1.2,0.5c-0.6,0-1.1-0.5-1.1-1.2c0-1.1,0.8-1.7,2.1-1.7c0.1,0,0.3,0,0.5,0c0-0.1,0-0.2,0-0.3
		c0-0.3-0.2-0.4-0.7-0.4c-0.6,0-1,0.1-1.2,0.2c0-0.1,0.2-1,0.2-1c0.6-0.2,1-0.2,1.4-0.2c1,0,1.5,0.5,1.5,1.3c0,0.2,0,0.5-0.1,0.9
		C98.3,28.6,98.1,29.9,98,30.3L98,30.3z M84.8,30.2c-0.3,0.1-0.6,0.1-0.8,0.1c-0.6,0-0.9-0.3-0.9-1c0-0.2,0.1-0.7,0.2-1.2
		c0.1-0.4,0.5-3,0.5-3h1.2l-0.1,0.7h0.6l-0.2,1.1h-0.6c-0.1,0.8-0.3,1.9-0.3,2c0,0.2,0.1,0.3,0.4,0.3c0.1,0,0.2,0,0.3,0L84.8,30.2z
		 M88.4,30.2c-0.4,0.1-0.8,0.2-1.2,0.2c-1.3,0-2-0.7-2-2c0-1.5,0.9-2.6,2-2.6c1,0,1.6,0.6,1.6,1.6c0,0.3,0,0.6-0.1,1.1h-2.3
		c-0.1,0.6,0.3,0.9,1,0.9c0.4,0,0.8-0.1,1.2-0.3L88.4,30.2z M87.7,27.5c0-0.1,0.1-0.8-0.5-0.8c-0.4,0-0.6,0.3-0.7,0.8H87.7z
		 M80.3,27.2c0,0.6,0.3,0.9,0.9,1.2c0.5,0.2,0.5,0.3,0.5,0.5c0,0.3-0.2,0.4-0.7,0.4c-0.3,0-0.7-0.1-1-0.2c0,0-0.2,1-0.2,1
		c0.3,0.1,0.5,0.1,1.2,0.1c1.2,0,1.8-0.5,1.8-1.5c0-0.6-0.2-1-0.8-1.2c-0.5-0.2-0.5-0.3-0.5-0.5c0-0.2,0.2-0.4,0.6-0.4
		c0.2,0,0.5,0,0.8,0.1l0.2-1c-0.3,0-0.8-0.1-1-0.1C80.8,25.7,80.3,26.4,80.3,27.2 M104.2,30.3h-1.1l0.1-0.4
		c-0.3,0.3-0.6,0.5-1.1,0.5c-0.9,0-1.4-0.7-1.4-1.8c0-1.5,0.9-2.7,1.9-2.7c0.5,0,0.8,0.2,1.1,0.6l0.3-1.6h1.2L104.2,30.3z
		 M102.5,29.3c0.5,0,0.9-0.6,0.9-1.5c0-0.6-0.2-0.9-0.6-0.9c-0.5,0-0.9,0.6-0.9,1.5C101.9,29,102.1,29.3,102.5,29.3z M99.1,25.8
		c-0.1,1.4-0.4,2.8-0.6,4.1l-0.1,0.3h1.2c0.4-2.7,0.5-3.2,1.2-3.2c0.1-0.6,0.3-1,0.4-1.3c-0.5-0.1-0.8,0.2-1.1,0.7
		c0-0.2,0.1-0.4,0.1-0.7H99.1z M89.5,25.8c-0.1,1.4-0.4,2.8-0.6,4.1l-0.1,0.3H90c0.4-2.7,0.5-3.2,1.2-3.2c0.1-0.6,0.3-1,0.4-1.3
		c-0.5-0.1-0.8,0.2-1.1,0.7c0-0.2,0.1-0.4,0.1-0.7H89.5z M104.7,29.9c0-0.2,0.2-0.3,0.3-0.3c0.2,0,0.3,0.2,0.3,0.3v0
		c0,0.2-0.2,0.3-0.3,0.3C104.9,30.3,104.7,30.1,104.7,29.9L104.7,29.9z M105.1,30.2c0.1,0,0.3-0.1,0.3-0.3v0c0-0.1-0.1-0.3-0.3-0.3
		h0c-0.1,0-0.3,0.1-0.3,0.3C104.8,30.1,104.9,30.2,105.1,30.2L105.1,30.2z M105,30.1L105,30.1l-0.1-0.3h0.1c0,0,0.1,0,0.1,0
		c0,0,0,0,0,0.1c0,0,0,0.1-0.1,0.1l0.1,0.1L105,30.1l0.1-0.1H105V30.1L105,30.1z M105,29.9L105,29.9C105.1,29.9,105.1,29.9,105,29.9
		c0.1,0,0.1,0,0.1,0C105.1,29.9,105.1,29.8,105,29.9C105.1,29.8,105.1,29.8,105,29.9L105,29.9L105,29.9L105,29.9z"/>
</g>
<g>
	<path class="st8" d="M124.5,12.4h42c1.3,0,2.4,1.1,2.4,2.4V40c0,1.3-1.1,2.4-2.4,2.4h-42c-1.3,0-2.4-1.1-2.4-2.4V14.8
		C122.1,13.5,123.1,12.4,124.5,12.4z"/>
	<path class="st7" d="M122.1,26.6h2.2l0.5-1.2h1.1l0.5,1.2h4.4v-0.9l0.4,0.9h2.3l0.4-0.9v0.9h11l0-1.9h0.2c0.1,0,0.2,0,0.2,0.3v1.7
		h5.7v-0.4c0.5,0.2,1.2,0.4,2.1,0.4h2.4l0.5-1.2h1.1l0.5,1.2h4.6v-1.1l0.7,1.1h3.7v-7.4H163v0.9l-0.5-0.9h-3.7v0.9l-0.5-0.9h-5.1
		c-0.8,0-1.6,0.1-2.2,0.4v-0.4h-3.5v0.4c-0.4-0.3-0.9-0.4-1.5-0.4h-12.8l-0.9,1.9l-0.9-1.9h-4v0.9l-0.4-0.9h-3.4l-1.6,3.5
		L122.1,26.6L122.1,26.6L122.1,26.6z M136.3,25.5h-1.3l0-4.1l-1.9,4.1h-1.2l-1.9-4.1v4.1h-2.7l-0.5-1.2H124l-0.5,1.2h-1.4l2.4-5.3h2
		l2.2,5v-5h2.1l1.7,3.6l1.6-3.6h2.2L136.3,25.5z M126.3,23.3l-0.9-2.1l-0.9,2.1H126.3z M141.6,25.5h-4.4v-5.3h4.4v1.1h-3.1v0.9h3
		v1.1h-3v1.1h3.1L141.6,25.5z M147.8,21.7c0,0.8-0.6,1.3-0.9,1.4c0.3,0.1,0.5,0.3,0.7,0.4c0.2,0.3,0.2,0.5,0.2,1v1h-1.3l0-0.7
		c0-0.3,0-0.8-0.2-1c-0.2-0.2-0.5-0.2-1-0.2h-1.4v1.9h-1.3v-5.3h3c0.7,0,1.2,0,1.6,0.3C147.6,20.7,147.8,21.1,147.8,21.7L147.8,21.7
		z M146.2,22.5c-0.2,0.1-0.4,0.1-0.7,0.1h-1.6v-1.2h1.6c0.2,0,0.5,0,0.6,0.1c0.2,0.1,0.3,0.2,0.3,0.5
		C146.4,22.2,146.3,22.4,146.2,22.5z M149.9,25.5h-1.3v-5.3h1.3V25.5z M165.5,25.5h-1.9l-2.5-4v4h-2.7l-0.5-1.2h-2.7l-0.5,1.2h-1.5
		c-0.6,0-1.4-0.1-1.9-0.6c-0.5-0.4-0.7-1.1-0.7-2c0-0.8,0.1-1.5,0.7-2.1c0.4-0.4,1.1-0.6,2-0.6h1.3v1.1h-1.2c-0.5,0-0.8,0.1-1,0.3
		c-0.2,0.2-0.4,0.6-0.4,1.2c0,0.6,0.1,1,0.4,1.2c0.2,0.2,0.6,0.3,0.9,0.3h0.6l1.9-4.1h2l2.2,5v-5h2l2.3,3.7v-3.7h1.3L165.5,25.5z
		 M157.5,23.3l-0.9-2.1l-0.9,2.1H157.5z M168.9,33.9c-0.3,0.4-0.9,0.7-1.8,0.7h-2.5v-1.1h2.5c0.3,0,0.4,0,0.5-0.1
		c0.1-0.1,0.2-0.2,0.2-0.3c0-0.2-0.1-0.3-0.2-0.3c-0.1-0.1-0.2-0.1-0.5-0.1c-1.2,0-2.8,0-2.8-1.6c0-0.8,0.5-1.6,1.9-1.6h2.6v-1h-2.4
		c-0.7,0-1.3,0.2-1.6,0.4v-0.4h-3.6c-0.6,0-1.3,0.1-1.6,0.4v-0.4h-6.4v0.4c-0.5-0.4-1.4-0.4-1.8-0.4h-4.2v0.4
		c-0.4-0.4-1.3-0.4-1.9-0.4h-4.7l-1.1,1.1l-1-1.1h-7.1v7.4h7l1.1-1.1l1.1,1.1l4.3,0v-1.7h0.4c0.6,0,1.2,0,1.8-0.3v2h3.5v-1.9h0.2
		c0.2,0,0.2,0,0.2,0.2v1.7h10.7c0.7,0,1.4-0.2,1.8-0.5v0.5h3.4c0.7,0,1.4-0.1,1.9-0.3L168.9,33.9L168.9,33.9z M147.6,31.1
		c0,1.5-1.1,1.8-2.3,1.8h-1.6v1.8h-2.6l-1.6-1.7l-1.7,1.7h-5.2v-5.3h5.3l1.6,1.7l1.7-1.7h4.2C146.4,29.4,147.6,29.7,147.6,31.1z
		 M137.1,33.5h-3.2v-1h2.9v-1.1h-2.9v-1h3.3l1.4,1.5L137.1,33.5z M142.3,34.1l-2-2.1l2-2.1V34.1z M145.3,31.8h-1.7v-1.3h1.7
		c0.5,0,0.8,0.2,0.8,0.6C146.1,31.6,145.8,31.8,145.3,31.8z M154.2,29.4h4.4v1.1h-3.1v1h3v1.1h-3v1l3.1,0v1.1h-4.4L154.2,29.4z
		 M152.5,32.2c0.3,0.1,0.5,0.3,0.6,0.4c0.2,0.3,0.2,0.5,0.2,1v1h-1.3V34c0-0.3,0-0.8-0.2-1c-0.2-0.2-0.5-0.2-1-0.2h-1.4v1.9h-1.3
		v-5.3h3c0.7,0,1.2,0,1.6,0.2c0.4,0.2,0.7,0.6,0.7,1.2C153.4,31.6,152.9,32.1,152.5,32.2L152.5,32.2z M151.8,31.5
		c-0.2,0.1-0.4,0.1-0.6,0.1h-1.6v-1.2h1.6c0.2,0,0.5,0,0.6,0.1c0.2,0.1,0.3,0.2,0.3,0.5C152,31.3,151.9,31.4,151.8,31.5L151.8,31.5z
		 M163.6,31.9c0.3,0.3,0.4,0.6,0.4,1.1c0,1.1-0.7,1.7-2.1,1.7h-2.6v-1.1h2.6c0.2,0,0.4,0,0.5-0.1c0.1-0.1,0.2-0.2,0.2-0.3
		c0-0.2-0.1-0.3-0.2-0.3c-0.1-0.1-0.2-0.1-0.5-0.1c-1.2,0-2.8,0-2.8-1.6c0-0.8,0.5-1.6,1.9-1.6h2.6v1.1h-2.4c-0.2,0-0.4,0-0.5,0.1
		c-0.1,0.1-0.2,0.2-0.2,0.4c0,0.2,0.1,0.3,0.3,0.4c0.1,0,0.3,0.1,0.5,0.1l0.7,0C162.8,31.5,163.3,31.6,163.6,31.9L163.6,31.9z
		 M168.9,30.5h-2.4c-0.2,0-0.4,0-0.5,0.1c-0.1,0.1-0.2,0.2-0.2,0.4c0,0.2,0.1,0.3,0.3,0.4c0.1,0,0.3,0.1,0.5,0.1l0.7,0
		c0.7,0,1.2,0.1,1.5,0.4c0.1,0,0.1,0.1,0.1,0.1L168.9,30.5L168.9,30.5z"/>
</g>
<g>
	<path class="st7" d="M243,3.3h-3.2v7.9h1.4V8.2h1.8c1.8,0,2.9-0.9,2.9-2.4S244.8,3.3,243,3.3z M243,7h-1.7V4.6h1.7
		c1,0,1.6,0.4,1.6,1.2S244,7,243,7L243,7z"/>
	<path class="st7" d="M249,5.4c-1.5,0-2.8,1.2-2.8,2.7c0,0.1,0,0.2,0,0.3c-0.1,1.5,1,2.9,2.5,3c1.5,0.1,2.9-1,3-2.5
		c0-0.2,0-0.3,0-0.5c0.1-1.5-1-2.9-2.5-3C249.1,5.4,249,5.4,249,5.4z M249,10.3c-0.9,0-1.5-0.7-1.5-1.9s0.6-1.9,1.5-1.9
		s1.5,0.7,1.5,1.9S249.8,10.3,249,10.3L249,10.3z"/>
	<polygon class="st7" points="257.6,9.3 256.5,5.4 255.4,5.4 254.4,9.3 253.4,5.4 252,5.4 253.7,11.3 254.9,11.3 255.9,7.5 
		257,11.3 258.2,11.3 259.9,5.4 258.6,5.4 	"/>
	<path class="st7" d="M262.9,5.4c-1.6,0-2.8,1.3-2.8,2.9c0,0,0,0.1,0,0.1c-0.1,1.5,1,2.9,2.6,3c0.1,0,0.2,0,0.3,0
		c1.1,0.1,2.1-0.6,2.5-1.6l-1.1-0.5c-0.2,0.6-0.7,1-1.3,0.9c-0.9,0-1.6-0.7-1.6-1.5c0,0,0,0,0-0.1h4.1V8.2
		C265.5,6.6,264.6,5.4,262.9,5.4z M261.5,7.7c0.1-0.7,0.7-1.2,1.4-1.2c0.6-0.1,1.2,0.4,1.2,1c0,0,0,0.1,0,0.1L261.5,7.7z"/>
	<path class="st7" d="M267.8,6.3V5.4h-1.3v5.8h1.3v-3c0-0.8,0.5-1.4,1.3-1.5c0.1,0,0.1,0,0.2,0c0.2,0,0.3,0,0.5,0V5.4
		c-0.1,0-0.2,0-0.4,0C268.7,5.4,268.1,5.7,267.8,6.3z"/>
	<path class="st7" d="M272.8,5.4c-1.6,0-2.8,1.3-2.8,2.9c0,0,0,0.1,0,0.1c-0.1,1.5,1,2.9,2.6,3c0.1,0,0.2,0,0.3,0
		c1.1,0,2.1-0.6,2.5-1.6l-1.1-0.4c-0.2,0.6-0.7,1-1.3,0.9c-0.9,0-1.6-0.7-1.5-1.6c0,0,0,0,0,0h4.1V8.2
		C275.4,6.6,274.5,5.4,272.8,5.4z M271.4,7.7c0.1-0.7,0.7-1.2,1.4-1.2c0.6-0.1,1.2,0.4,1.2,1c0,0,0,0.1,0,0.1H271.4z"/>
	<path class="st7" d="M280.2,6.1c-0.4-0.5-1-0.8-1.7-0.7c-1.6,0-2.6,1.4-2.6,3s0.9,3,2.6,3c0.6,0,1.3-0.2,1.7-0.7v0.6h1.3V3.3h-1.3
		V6.1z M280.2,8.6c0.1,0.8-0.4,1.6-1.3,1.7c-0.1,0-0.1,0-0.2,0c-1,0-1.5-0.7-1.5-1.9s0.5-1.9,1.5-1.9c0.8,0,1.5,0.6,1.5,1.7V8.6z"/>
	<path class="st7" d="M288.9,5.4c-0.7,0-1.3,0.2-1.7,0.7V3.3h-1.3v7.9h1.3v-0.6c0.4,0.5,1,0.8,1.7,0.7c1.6,0,2.5-1.4,2.5-3
		S290.5,5.4,288.9,5.4z M288.7,10.2c-0.8,0-1.5-0.6-1.5-1.5c0-0.1,0-0.1,0-0.2V8.2c0-1.1,0.6-1.7,1.5-1.7c1,0,1.5,0.7,1.5,1.9
		S289.6,10.2,288.7,10.2z"/>
	<path class="st7" d="M294.5,9.5l-1.4-4.1h-1.4l2.1,5.6l-0.2,0.5c-0.1,0.4-0.4,0.6-0.8,0.6c-0.1,0-0.3,0-0.4,0v1.1
		c0.2,0,0.4,0,0.5,0c0.9,0.1,1.8-0.6,2-1.5l2.4-6.3h-1.4L294.5,9.5z"/>
</g>
</svg>
