<?xml version="1.0" encoding="utf-8"?>
<!-- Generator: Adobe Illustrator 27.0.1, SVG Export Plug-In . SVG Version: 6.00 Build 0)  -->
<svg version="1.1" id="Layer_1" xmlns="http://www.w3.org/2000/svg" xmlns:xlink="http://www.w3.org/1999/xlink" x="0px" y="0px"
	 viewBox="0 0 500 375" style="enable-background:new 0 0 500 375;" xml:space="preserve">
<style type="text/css">
	.st0{fill:#009036;}
	.st1{fill:#FEFEFE;}
	.st2{fill:#FFFFFF;}
	.st3{font-family:'Arial-BoldMT';}
	.st4{font-size:76.3703px;}
</style>
<path class="st0" d="M49.4,43.6l-4.2-3.9c-2,1.1-4.4,1.8-7.3,1.8c-9.3,0-14.7-6.9-14.7-15.5c0-8.9,5.4-15.8,14.7-15.8
	c9.3,0,14.7,6.9,14.7,15.8c0,4.3-1.4,8.2-3.9,11l3.7,3.4L49.4,43.6z M40.8,29.7l3.4,3.1c1.1-1.5,1.8-3.8,1.8-6.9
	c0-5.2-2.2-10.3-8.1-10.3c-5.9,0-8.1,5-8.1,10.3c0,5,2.2,10,8.1,10c1,0,2.2,0,2.6-0.4L37.7,33L40.8,29.7z"/>
<path class="st0" d="M82.5,29.5c0,8.1-4.8,12-12.8,12c-8,0-12.7-3.9-12.7-12V10.9h6.6v18.6c0,3.3,0.8,6.5,6.2,6.5
	c4.7,0,6.2-2.1,6.2-6.5V10.9h6.6V29.5z"/>
<path class="st0" d="M96.3,10.9h6.7l11.2,29.9h-6.8l-2.3-6.7H94l-2.4,6.7h-6.7L96.3,10.9z M95.7,29.2h7.8l-3.8-11h-0.1L95.7,29.2z"
	/>
<polygon class="st0" points="116.8,10.9 123.4,10.9 123.4,35.3 138,35.3 138,40.8 116.8,40.8 "/>
<rect x="141.7" y="10.9" class="st0" width="6.6" height="29.9"/>
<polygon class="st0" points="160.7,16.4 151.7,16.4 151.7,10.9 176.2,10.9 176.2,16.4 167.3,16.4 167.3,40.8 160.7,40.8 "/>
<polygon class="st0" points="187.4,29.1 176.4,10.9 183.8,10.9 190.8,22.7 197.8,10.9 205.1,10.9 194,29.3 194,40.8 187.4,40.8 "/>
<path class="st0" d="M227.5,10.9h6.7l11.2,29.9h-6.8l-2.3-6.7h-11.2l-2.3,6.7h-6.7L227.5,10.9z M226.8,29.2h7.8l-3.8-11h-0.1
	L226.8,29.2z"/>
<path class="st0" d="M252.5,30.9c0,4,3.1,5.5,6.6,5.5c2.3,0,5.8-0.7,5.8-3.7c0-3.2-4.5-3.8-8.9-4.9c-4.4-1.2-8.9-2.9-8.9-8.5
	c0-6.1,5.8-9.1,11.2-9.1c6.2,0,12,2.7,12,9.6h-6.4c-0.2-3.6-2.8-4.5-5.9-4.5c-2.1,0-4.5,0.9-4.5,3.4c0,2.3,1.4,2.6,8.9,4.5
	c2.2,0.5,8.9,1.9,8.9,8.7c0,5.5-4.3,9.6-12.4,9.6c-6.6,0-12.8-3.3-12.7-10.6H252.5z"/>
<path class="st0" d="M279.7,30.9c0,4,3.1,5.5,6.6,5.5c2.3,0,5.8-0.7,5.8-3.7c0-3.2-4.5-3.8-8.9-4.9c-4.4-1.2-8.9-2.9-8.9-8.5
	c0-6.1,5.8-9.1,11.2-9.1c6.2,0,12,2.7,12,9.6h-6.4c-0.2-3.6-2.8-4.5-5.9-4.5c-2.1,0-4.5,0.9-4.5,3.4c0,2.3,1.4,2.6,8.9,4.5
	c2.2,0.5,8.9,1.9,8.9,8.7c0,5.5-4.3,9.6-12.4,9.6c-6.6,0-12.8-3.3-12.7-10.6H279.7z"/>
<path class="st0" d="M327.8,29.5c0,8.1-4.8,12-12.8,12c-8,0-12.7-3.9-12.7-12V10.9h6.6v18.6c0,3.3,0.8,6.5,6.2,6.5
	c4.7,0,6.2-2.1,6.2-6.5V10.9h6.6V29.5z"/>
<path class="st0" d="M333.5,10.9h16.1c5.4,0,8.8,3.7,8.8,8.3c0,3.5-1.4,6.2-4.7,7.5v0.1c3.2,0.8,4.1,4,4.4,7
	c0.1,1.9,0.1,5.4,1.3,7.1h-6.6c-0.8-1.9-0.7-4.8-1-7.2c-0.5-3.1-1.7-4.5-5-4.5H340v11.7h-6.6V10.9z M340,24.4h7.2
	c2.9,0,4.5-1.3,4.5-4.3c0-2.9-1.6-4.1-4.5-4.1H340V24.4z"/>
<path class="st0" d="M371.9,10.9h6.7l11.2,29.9H383l-2.3-6.7h-11.2l-2.3,6.7h-6.7L371.9,10.9z M371.3,29.2h7.8l-3.8-11h-0.1
	L371.3,29.2z"/>
<polygon class="st0" points="392.4,10.9 399,10.9 411.5,30.9 411.5,30.9 411.5,10.9 417.7,10.9 417.7,40.8 411.1,40.8 398.7,20.8 
	398.6,20.8 398.6,40.8 392.4,40.8 "/>
<path class="st0" d="M443.4,20.9c-0.4-3-3.3-5.2-6.5-5.2c-5.9,0-8.1,5-8.1,10.3c0,5,2.2,10,8.1,10c4,0,6.3-2.8,6.8-6.7h6.4
	c-0.7,7.5-5.8,12.2-13.2,12.2c-9.3,0-14.7-6.9-14.7-15.5c0-8.9,5.4-15.8,14.7-15.8c6.6,0,12.1,3.9,12.9,10.8H443.4z"/>
<polygon class="st0" points="454.5,10.9 476.9,10.9 476.9,16.4 461.1,16.4 461.1,22.8 475.6,22.8 475.6,27.9 461.1,27.9 461.1,35.3 
	477.3,35.3 477.3,40.8 454.5,40.8 "/>
<path class="st0" d="M317.6,103.5c0,0.7,0.1,1.4,0.1,2.2c0,35.9-30.3,65-67.6,65c-37.3,0-67.6-29.1-67.6-65c0-0.7,0.1-1.4,0.1-2.2
	H19v256.5h463.6V103.5H317.6z"/>
<path class="st0" d="M249.5,159.8c29.9,0,54.1-24.2,54.1-54.1c0-29.9-24.2-54.1-54.1-54.1c-29.9,0-54.1,24.2-54.1,54.1
	C195.4,135.6,219.6,159.8,249.5,159.8"/>
<path class="st1" d="M233.4,113.5c0.2,1.2,0.4,3.2,1.2,4.2c0.5,0.6,1.8,1.2,2.5,1.2c0.8,0,1.5-0.8,2-1.2l1.6-1.5L260,97.3l13.6-13.1
	l7.3-6c1.2-0.9,2-1.3,3.7-1.3c3,0,3,0.6,3,3.3v6.1c0,2.7-0.5,2.7-2.5,4.8l-6.6,7.2l-22.9,24.2l-12.3,11.8
	c-2.4,2.2-10.6,10.5-13.8,10.5l-2.2-0.2c-1.4-0.1-5.2-2.8-6.4-3.8c-1.2-1-2.7-2.5-3.8-3.7c-0.8-0.8-0.8-2.5-0.8-3.5l-1.3-11.4
	c-0.5-4-0.7-7.3-0.5-11.3c0.1-2.5,0.2-3.6,0.5-4.4c0.3-0.8,1-1.6,2.6-3.5c1.2-1.5,3-3.9,5-4.5c1.3-0.5,3.5-0.8,4.8-0.8
	c1.1,0,2,0.3,2.9,0.9c1.2,1,1.3,1.5,1.3,3c0,1.9,0.7,5.1,0.9,7L233.4,113.5z"/>
<text transform="matrix(1 0 0 1 111.2291 249.9316)"><tspan x="0" y="0" class="st2 st3 st4">ORDER</tspan><tspan x="-19.1" y="84.2" class="st2 st3 st4">PLACED</tspan></text>
</svg>
