<?xml version="1.0" encoding="utf-8"?>
<!-- Generator: Adobe Illustrator 27.0.1, SVG Export Plug-In . SVG Version: 6.00 Build 0)  -->
<svg version="1.1" id="Layer_1" xmlns="http://www.w3.org/2000/svg" xmlns:xlink="http://www.w3.org/1999/xlink" x="0px" y="0px"
	 viewBox="0 0 600 100" style="enable-background:new 0 0 600 100;" xml:space="preserve">
<style type="text/css">
	.st0{fill:#FFFFFF;}
	.st1{fill:#FDD01C;}
	.st2{fill:#1E1E1C;}
	.st3{fill:#E21F26;}
	.st4{fill:#FEDA15;}
	.st5{fill:#38BEEF;}
	.st6{fill:#2BA84A;}
	.st7{fill:#F49530;}
	.st8{fill:#EF8122;}
	.st9{fill:#24743A;}
	.st10{fill:#256432;}
	.st11{fill:#577B92;}
	.st12{fill:#EC1F39;}
</style>
<g>
	<path class="st0" d="M154.6,79.3c-0.1-10.9-9.1-19.6-20-19.6c-10.4,0-19,8-19.9,18.2c0,0.6-0.1,1.2-0.1,1.8c0,11,9,20,20,20
		s20-9,20-20C154.6,79.5,154.6,79.4,154.6,79.3z"/>
	<path class="st1" d="M16.6,58.1c-2.9,0-5.8-0.4-8.6-1.2c-2.6-0.7-5.4-2-8-3.5l4.5-11.6c2,1.4,3.9,2.5,5.5,3.1
		c1.9,0.9,3.7,1.2,5.5,1.2c1.4,0,2.4-0.3,3.1-0.9c0.9-0.6,1.4-1.5,1.4-2.6c0-2.8-4.1-3.6-5.5-3.9L12,38.3c-2.5-0.6-4.5-1.8-6.1-3.1
		L5.8,35l-0.3-0.3c-0.3-0.3-0.5-0.5-0.7-0.9c-1.6-2-2.5-4.6-2.5-7.7c0-4.9,1.6-8.8,4.9-12s7.8-4.7,13.2-4.7c2.5,0,5,0.4,7.4,1
		c2.2,0.6,4.5,1.6,6.8,2.8L30.1,24c-1.4-0.9-2.6-1.7-4-2.3c-1.6-0.6-3.4-1-4.9-1c-1.4,0-2.4,0.3-3.1,0.7c-0.9,0.6-1.4,1.4-1.4,2.5
		c0,1.9,2.4,3.3,7.5,4.5l1.6,0.4c2.9,0.6,5.2,2.1,6.9,4.3c0.9,1.1,1.6,2.5,2,4l0.1,0.4c0.3,1.1,0.4,2.2,0.4,3.4
		c0,5-1.8,9.3-5.1,12.4C26.6,56.5,22.1,58.1,16.6,58.1L16.6,58.1L16.6,58.1z"/>
	<path class="st1" d="M93.4,10.4h28.5v11.1c-3.3,0-14,0-14,0v7.5h12.6v10.5c-3,0-12.6,0-12.6,0s0,13.4,0,17.1H93.4
		C93.4,56.7,93.4,10.4,93.4,10.4z"/>
	<path class="st1" d="M125.9,10.2h28.5v11.1c-3.3,0-14.4,0-14.4,0v6.5c0,0,9.9,0,13,0v10.5h-13v7c0,0,11.4,0,14.8,0v11.1h-28.9V10.2
		z"/>
	<path class="st1" d="M167.2,24.1h-9v-14l32.5-0.1v14c-2.4,0-9,0-9,0v32.4h-14.4L167.2,24.1z"/>
	<path class="st1" d="M209.4,35.8l-14.5-25.6h16.4l3.6,8.7c0.4,0.7,0.7,1.9,1.1,3.3l1,3.4l1.1-3.4c0.3-0.7,0.5-1.6,1-2.8l0.3-0.5
		l3.5-8.7h16.3c-3.5,5.9-15,25.7-15,25.7v20.6h-14.5L209.4,35.8z"/>
	<path class="st0" d="M79.1,38.9c-6.2-10.8-13.4-23.2-15.5-27C61,16.5,50.9,34.1,50.9,34.1s-0.9,1.5-2.1,3.6
		C45.6,43.1,40,53,38.1,56.2c5.2,0,45.9,0,51,0C88,54.3,83.8,47,79.1,38.9z"/>
	<path class="st2" d="M44.9,80h5.7l-1.2,6.2c-0.1,0.6,0.3,0.9,1,0.9c0.7,0,1.2-0.3,1.4-1l0.6-3.3c0.3-1-0.3-2.1-1.4-3.5
		c-2.1-2.5-3.5-4.1-4-5c-0.5-0.9-0.6-1.8-0.4-2.8l0.6-2.9c0.7-3.5,3.5-5.2,8.3-5.2c4.3,0,6.1,1.6,5.5,4.7l-1,4.6h-5.7l1-5
		c0.1-0.5-0.1-0.7-0.7-0.7c-0.7,0-1.2,0.5-1.5,1.5l-0.3,1.8c-0.3,1,0.3,2.1,1.4,3.5c2.1,2.4,3.5,4,4,5c0.5,1,0.6,2,0.4,3.3l-0.7,3.5
		c-0.7,3.6-3.5,5.4-8.3,5.4c-4.6,0-6.6-1.6-6-4.9L44.9,80z"/>
	<polygon class="st2" points="63.6,90.7 58,90.7 62.5,68.9 68.1,68.9 	"/>
	<path class="st3" d="M99.5,54.1l-8.4-14.6L70.6,4.1c-1.5-2.5-4.1-4.1-7-4.1c-2.9,0-5.7,1.5-7,4.1c0,0-14.9,25.7-15,26.1l-4.6,7.5
		l-9.5,16.4c-0.7,1.2-1.1,2.6-1.1,4.1c0,1.4,0.4,2.9,1.1,4.1c1.5,2.5,4.1,4.1,7,4.1h12c1.1-2.1,3.6-4,8.7-4c2.9,0,4.7,0.6,5.9,2
		c0.3,0.4,0.5,0.6,0.6,1.1l0.6-2.8h8.1l-0.7,3.7h1.6h21c2.9,0,5.7-1.5,7-4.1C101,59.8,101,56.6,99.5,54.1z M43.2,29.7L43.2,29.7
		C43.2,29.6,43.2,29.6,43.2,29.7C43.2,29.6,43.2,29.6,43.2,29.7L43.2,29.7L43.2,29.7L43.2,29.7z M38.1,56.2
		c1.9-3.3,7.5-13,10.6-18.5c1.2-2.2,2.1-3.6,2.1-3.6S61,16.5,63.6,12c2.1,3.7,9.4,16.1,15.5,27c4.6,8.1,8.8,15.4,10,17.3
		C83.8,56.2,43.2,56.2,38.1,56.2z"/>
	<polygon class="st2" points="68.4,67.6 62.7,67.6 63.5,63.8 69.1,63.8 	"/>
	<path class="st2" d="M64.9,95.4l0.6-3.3h4.6c1.4,0,2.1-0.6,2.4-1.9c-0.9,0.5-2,0.7-3.6,0.7c-1.1,0-2-0.3-2.8-0.9
		c-0.7-0.5-1-1.2-0.7-2.2l3.1-15.7c0.5-2.4,2.2-3.6,5.2-3.6c0.7,0,1.8,0.4,2.9,1l0.9-0.9h4.9L78,90.4c-0.3,1.4-0.9,2.6-1.6,3.5
		c-0.7,1-2.8,1.4-5.8,1.4L64.9,95.4L64.9,95.4z M73.1,86.9l2.8-13.8c0.1-0.6-0.1-1-0.7-1s-1,0.4-1.2,1l-2.8,13.8
		c-0.1,0.6,0.1,1,0.7,1C72.6,87.9,73,87.5,73.1,86.9z"/>
	<path class="st2" d="M92.4,90.7h-5.7l3.5-17.6c0.1-0.6-0.1-1-0.7-1c-0.6,0-1.1,0.4-1.2,1.1l-3.5,17.6h-5.7L83.5,69h5.7L89,69.7
		c0.9-0.6,2.1-0.9,3.6-0.9c1,0,1.9,0.3,2.6,0.7c0.7,0.5,1,1.2,0.9,2.4L92.4,90.7z"/>
	<path class="st2" d="M95.3,82h5.7l-0.9,4.6c-0.1,0.7,0.1,1.1,0.7,1.1c0.6,0,1.1-0.7,1.4-2.1c0.4-1.9,0.3-3-0.5-3.6
		c-2.6-1.5-4.1-2.5-4.6-3.1c-0.5-0.6-0.6-1.5-0.4-2.6l0.6-3c0.6-3.1,3.1-4.6,7.5-4.6c4.3,0,6,1.5,5.5,4.5l-1,4.4h-5.5l0.6-2.6
		c0.4-1.9,0.3-2.8-0.5-2.8c-0.7,0-1.1,0.6-1.4,1.8c-0.3,1.1-0.3,2.1-0.1,2.6c0.1,0.6,1.6,1.6,4.5,3.1c1.1,0.9,1.5,2.1,1.2,3.5
		l-0.6,3.3c-0.6,3.1-3.1,4.6-7.6,4.6c-4.4,0-6.2-1.5-5.7-4.5L95.3,82z"/>
	<path class="st2" d="M174,90.7h-6.4l-1.4-14.4l-2.9,14.4h-5.1l5.5-27.1h7l1.1,12.4l2.5-12.4h5.1L174,90.7z"/>
	<path class="st2" d="M176,86.5l2.6-13.1c0.6-3.1,3.1-4.6,7.6-4.6c1.8,0,3.1,0.4,4.4,1.1c1.1,0.7,1.6,1.9,1.2,3.4l-2.8,13.5
		c-0.6,3-3.1,4.4-7.4,4.4C177.2,91.1,175.4,89.6,176,86.5z M183.6,86.6l2.8-13.4c0.1-0.7-0.1-1.1-0.7-1.1c-0.6,0-1.1,0.4-1.2,1.1
		l-2.6,13.4c-0.1,0.7,0.1,1.1,0.7,1.1C183,87.7,183.5,87.4,183.6,86.6z"/>
	<path class="st2" d="M200.5,90.7H197c-2.5,0-4-0.4-4.4-1.1c-0.4-0.7-0.4-2.1,0.1-4.3l2.8-13.4H193l0.6-3.3h2.5l0.9-4.5h5.7
		l-0.9,4.5h3l-0.6,3.3h-3l-2.8,13.5c-0.1,0.6,0,1.1,0.4,1.2c0.4,0.3,1.2,0.4,2.5,0.4L200.5,90.7z"/>
	<path class="st2" d="M207.1,90.7h-5.6l4.4-21.9h5.7L207.1,90.7z M211.7,67.6h-5.7l0.7-3.9h5.7L211.7,67.6z"/>
	<path class="st2" d="M223.9,78.6h-5.7l1.1-5.4c0.1-0.7-0.1-1.1-0.7-1.1c-0.6,0-1,0.4-1.1,1.1l-2.8,13.4c-0.1,0.7,0.1,1.1,0.7,1.1
		c0.6,0,1-0.4,1.1-1.1l1-5.2h5.7l-1.1,5.4c-0.6,3-3,4.5-7.4,4.5s-6.4-1.5-5.8-4.6l2.6-13.1c0.6-3.1,3.1-4.6,7.6-4.6
		c4.3,0,6.1,1.5,5.7,4.5L223.9,78.6z"/>
	<path class="st2" d="M237.6,81.5h-7.5l-1,5c-0.1,0.7,0.1,1.1,0.7,1.1c0.6,0,1-0.4,1.1-1.1l0.9-4.4h5.7l-0.9,4.5
		c-0.6,3-3.1,4.4-7.5,4.4s-6.2-1.5-5.7-4.6l2.6-13.1c0.6-3.1,3.1-4.6,7.5-4.6s6.2,1.5,5.8,4.5L237.6,81.5z M232.7,78.3l1-5
		c0.1-0.7-0.1-1.1-0.7-1.1s-1,0.4-1.1,1.1l-1,5H232.7z"/>
	<path class="st2" d="M238.8,82h5.7l-0.9,4.6c-0.1,0.7,0.1,1.1,0.7,1.1c0.6,0,1.1-0.7,1.4-2.1c0.4-1.9,0.3-3-0.5-3.6
		c-2.6-1.5-4.1-2.5-4.6-3.1c-0.5-0.6-0.6-1.5-0.4-2.6l0.6-3c0.6-3.1,3.1-4.6,7.5-4.6c4.3,0,6,1.5,5.5,4.5l-0.9,4.4h-5.5l0.6-2.6
		c0.4-1.9,0.3-2.8-0.5-2.8c-0.7,0-1.1,0.6-1.4,1.8c-0.3,1.1-0.3,2.1-0.1,2.6c0.1,0.6,1.8,1.6,4.5,3.1c1.1,0.9,1.5,2.1,1.2,3.5
		l-0.6,3.3c-0.6,3.1-3.1,4.6-7.6,4.6c-4.4,0-6.2-1.5-5.7-4.5L238.8,82z"/>
	<path class="st3" d="M155,79.3c-0.3-11.1-9.3-20-20.4-20c-10.6,0-19.3,8.1-20.3,18.5c0,0.6-0.1,1.2-0.1,1.9
		c0,11.2,9.1,20.4,20.4,20.4S155,90.9,155,79.6C155,79.5,155,79.4,155,79.3z M134.6,94.3c-8.1,0-14.8-6.6-14.8-14.8v-0.1
		c0-8.1,6.6-14.6,14.8-14.6c2.9,0,5.5,0.7,7.7,2.2l-14.5,14.5l-5.8,5.8c1.2,2,2.9,3.6,4.9,4.9l11.7-11.6l8.6-8.6
		c1.4,2.2,2.2,4.9,2.2,7.7c0,0.3,0,0.4,0,0.6C149,88.1,142.5,94.3,134.6,94.3z"/>
	<path class="st2" d="M132,88.9c-1.8,0-3-0.5-4-1.5c-0.9-1-1.4-2.2-1.4-3.7c0-1.1,0.3-2,0.7-2.6c0.5-0.6,1.4-1.1,2.5-1.6l1.1-0.5
		l-1-0.6c-1.6-1-2.4-2.4-2.4-4c0-1.5,0.5-2.6,1.6-3.5c1.1-0.9,2.8-1.4,4.7-1.4c1.8,0,3.3,0.5,4.3,1.4c1,0.9,1.5,2,1.5,3.3
		c0,1.4-0.6,2.6-1.9,3.9l-0.4,0.4l2.9,4.7l3.3-1.9v2.6l-2.1,1.2l2.1,3.5h-4.6l-1-1.5l-0.5,0.3C135.6,88.3,133.7,88.9,132,88.9z
		 M133.1,81.4c-1,0.7-1.5,1.6-1.5,2.6c0,0.7,0.1,1.2,0.5,1.6c0.4,0.4,0.9,0.6,1.6,0.6c0.6,0,1.4-0.3,2.1-0.7l0.5-0.4l-2.9-4.3
		L133.1,81.4z M134,71.3c-0.6,0-1.1,0.3-1.2,0.5c-0.3,0.4-0.4,0.7-0.4,1.4c0,1.1,0.5,2.1,1.4,3l0.5,0.5l0.4-0.4c0.9-1,1.2-2,1.2-2.9
		c0-0.5-0.1-0.9-0.5-1.4C135.1,71.5,134.6,71.3,134,71.3z"/>
	<g>
		<path class="st2" d="M244.6,10.2V4.4h-2.1V3.1h5.7v1.2H246v5.9C246,10.2,244.6,10.2,244.6,10.2z"/>
		<path class="st2" d="M249.1,10.2V3.1h2.1l1.2,4.9l1.2-4.9h2.2v7.1h-1.2V4.6l-1.4,5.7h-1.4l-1.2-5.7v5.7L249.1,10.2L249.1,10.2z"/>
	</g>
</g>
<g>
	<g>
		<path class="st4" d="M572.6,30.9c-1,0-2,0.1-3,0.2c2.4,5.8,3.7,12.2,3.7,18.9c0,7.2-1.5,14-4.3,20.2c5,3.2,7.8,9.1,6.8,15.3
			c13.6-1.6,24.2-13.2,24.2-27.2C600,43.2,587.7,30.9,572.6,30.9"/>
		<path class="st5" d="M523.3,0c-27.6,0-50,22.4-50,50s22.4,50,50,50c9.4,0,18.3-2.6,25.8-7.2c-2.7-3.3-4.1-7.7-3.3-12.3
			c0.5-2.9,1.8-5.5,3.6-7.6c-2.7-4.2-4.2-9.2-4.2-14.6c0-14.1,10.7-25.7,24.4-27.2C562.1,12.8,544.2,0,523.3,0"/>
		<path class="st6" d="M569.6,31.1c-13.7,1.5-24.4,13.1-24.4,27.2c0,5.4,1.5,10.4,4.2,14.6c2.8-3.2,6.9-5.1,11.4-5.1
			c0.8,0,1.7,0.1,2.6,0.2c2.1,0.3,4,1.1,5.7,2.2c2.7-6.2,4.3-13,4.3-20.2C573.3,43.3,572,36.9,569.6,31.1"/>
		<path class="st7" d="M560.8,83c-3.4,3.8-7.3,7.1-11.7,9.8c2.2,2.7,5.4,4.6,9.1,5.3c0.9,0.1,1.7,0.2,2.6,0.2
			c7.3,0,13.7-5.3,15-12.7c0,0,0-0.1,0-0.1c-1.1,0.1-2.1,0.2-3.2,0.2C568.4,85.7,564.4,84.7,560.8,83"/>
		<path class="st8" d="M569,70.2c-2.1,4.7-4.9,9-8.2,12.8c3.6,1.7,7.6,2.7,11.8,2.7c1.1,0,2.2-0.1,3.2-0.2
			C576.8,79.3,574,73.4,569,70.2"/>
		<path class="st9" d="M549.4,72.9c-1.8,2.1-3.1,4.7-3.6,7.6c-0.8,4.6,0.6,9,3.3,12.3c4.4-2.7,8.3-5.9,11.7-9.8
			C556.1,80.8,552.2,77.3,549.4,72.9"/>
		<path class="st10" d="M560.8,67.8c-4.4,0-8.5,1.9-11.4,5.1c2.7,4.3,6.7,7.9,11.4,10.1c3.3-3.8,6.1-8.1,8.2-12.8
			c-1.7-1.1-3.6-1.8-5.7-2.2C562.5,67.9,561.6,67.8,560.8,67.8"/>
	</g>
	<g>
		<path class="st0" d="M485.9,43.4h2.2l3.3-14.3h-2.5l0.5-2.3h7.6l-0.5,2.3H494l-3.4,14.4h5.9l0.7-2.8h2.5l-1.2,5.1h-13.2
			L485.9,43.4z"/>
		<path class="st0" d="M500.7,43.4c0-0.4,0.1-0.9,0.2-1.4l1.7-6.6h-2.3l0.5-2.1h4.9l-2.3,8.8c-0.1,0.5-0.2,1-0.2,1.3
			c0,0.5,0.3,0.9,0.7,0.9c0.6,0,1.1-0.4,1.7-2l1.1,0.4c-0.7,2.5-2,3.3-3.5,3.3C501.6,45.9,500.7,44.9,500.7,43.4z M503.1,29.5
			c0-0.9,0.7-1.7,1.7-1.7c0.9,0,1.7,0.7,1.7,1.7c0,0.9-0.8,1.7-1.7,1.7C503.9,31.1,503.1,30.4,503.1,29.5z"/>
		<path class="st0" d="M508.7,35.4h-2.2l0.5-2.1h3.8l1.4,9.9c2.2-2.4,3.8-4.9,4.3-6.8c-0.6-0.2-1.2-0.8-1.2-1.7c0-1,0.7-1.7,1.7-1.7
			c1.1,0,1.9,0.8,1.9,2.2c0,2.6-2.7,6.8-6.8,10.8h-1.7L508.7,35.4z"/>
		<path class="st0" d="M520.6,43.4c0-0.4,0.1-0.9,0.2-1.4l1.7-6.6h-2.3l0.5-2.1h4.9l-2.3,8.8c-0.1,0.5-0.2,1-0.2,1.3
			c0,0.5,0.3,0.9,0.7,0.9c0.6,0,1.1-0.4,1.7-2l1.1,0.4c-0.7,2.5-2,3.3-3.5,3.3C521.6,45.9,520.6,44.9,520.6,43.4z M523.1,29.5
			c0-0.9,0.7-1.7,1.7-1.7c0.9,0,1.7,0.7,1.7,1.7c0,0.9-0.8,1.7-1.7,1.7C523.8,31.1,523.1,30.4,523.1,29.5z"/>
		<path class="st0" d="M535.3,43.4c0-0.4,0.1-0.9,0.2-1.4l1.1-3.8c0.1-0.5,0.2-0.9,0.2-1.3c0-1.1-0.7-1.8-1.9-1.8
			c-1.5,0-3,1.3-3.6,3.8l-1.7,6.8h-2.5l2.6-10.3h-2.3l0.5-2.1h4.5l-0.7,2.9c1-1.7,2.6-3.1,4.3-3.1c1.9,0,3.4,1.3,3.4,3.5
			c0,0.6-0.1,1.3-0.3,2l-1.1,3.7c-0.1,0.4-0.2,0.8-0.2,1c0,0.6,0.3,0.9,0.8,0.9s1-0.4,1.6-2l1.1,0.4c-0.7,2.3-1.9,3.3-3.4,3.3
			C536.3,45.9,535.3,44.9,535.3,43.4z"/>
		<path class="st0" d="M541.2,50c-0.5-0.5-0.7-1-0.7-1.6c0-1,0.7-1.7,1.6-1.7c0.9,0,1.5,0.7,1.5,1.6c0,0.3-0.1,0.5-0.2,0.7
			c0.4,0.2,1.1,0.5,2.1,0.5c1.2,0,2-0.3,2.7-1c0.7-0.6,1.1-1.7,1.4-3l0.5-2.3c-1.1,1.5-2.6,2.5-4.3,2.5c-2.8,0-4.5-2-4.5-5
			c0-4,2.8-7.5,6.6-7.5c2.1,0,3.4,1.4,3.8,2.8l0.8-2.7h2.3L552,46c-0.4,1.7-0.9,2.9-1.8,3.9c-1.1,1.1-2.5,1.6-4.6,1.6
			C543.8,51.5,542,50.8,541.2,50z M551.3,38.2c0-1.9-1.2-3-3-3c-2.4,0-4.3,2.3-4.3,5.1c0,1.9,1.2,3,2.9,3
			C549.4,43.4,551.3,40.9,551.3,38.2z"/>
		<path class="st0" d="M501.8,50.7h-2.1l0.5-2.3h7l-0.5,2.3h-2.4l0.6,12l7.1-12.2h1.2l2.1,12.3l5.8-12h-2.3l0.5-2.3h7l-0.5,2.3h-1.8
			l-8.6,16.9H514l-2.3-12.1l-7.3,12.1l-1.4,0L501.8,50.7z"/>
		<path class="st0" d="M521.3,62.7c0-4.3,2.9-7.9,6.6-7.9c1.9,0,3.3,1.4,3.7,2.9l0.8-2.8h2.4l-2.2,8.9c-0.1,0.5-0.2,1-0.2,1.3
			c0,0.5,0.3,0.9,0.7,0.9c0.5,0,1-0.4,1.6-2l1.1,0.4c-0.7,2.5-2.1,3.3-3.4,3.3c-1.5,0-2.4-1-2.4-2.5V65c-1.1,1.5-2.6,2.7-4.5,2.7
			C523.1,67.7,521.3,65.7,521.3,62.7z M531,60c0-1.9-0.9-3.1-2.8-3.1c-2.4,0-4.3,2.6-4.3,5.4c0,1.8,0.9,3.1,2.6,3.1
			C529.1,65.5,531,62.8,531,60z"/>
		<path class="st0" d="M536.1,71.8c-0.5-0.5-0.7-1-0.7-1.6c0-1,0.7-1.7,1.6-1.7c0.9,0,1.5,0.7,1.5,1.6c0,0.3-0.1,0.5-0.2,0.7
			c0.4,0.2,1.1,0.5,2.1,0.5c1.2,0,2-0.3,2.7-1c0.7-0.6,1.1-1.6,1.4-3l0.5-2.3c-1.1,1.5-2.6,2.5-4.3,2.5c-2.8,0-4.5-2-4.5-5
			c0-4,2.8-7.5,6.6-7.5c2.1,0,3.4,1.4,3.8,2.8l0.8-2.7h2.3l-3,12.8c-0.4,1.7-0.9,2.9-1.8,3.9c-1.1,1.1-2.5,1.6-4.6,1.6
			C538.8,73.2,536.9,72.5,536.1,71.8z M546.2,59.9c0-1.9-1.2-3-3-3c-2.4,0-4.3,2.3-4.3,5.1c0,1.9,1.2,3,2.9,3
			C544.4,65.1,546.2,62.6,546.2,59.9z"/>
		<path class="st0" d="M552.3,62v0.4c0,1.9,1.5,3.1,3.8,3.1c1.3,0,2.5-0.3,4.1-1.1l-0.5,2.4c-1.3,0.6-2.4,0.9-4.1,0.9
			c-3,0-5.7-1.9-5.7-5.3c0-4.2,3.1-7.6,6.8-7.6c3,0,5,1.7,5,4.7c0,0.8-0.1,1.7-0.5,2.6L552.3,62L552.3,62z M552.7,60.2h6.5
			c0.1-0.3,0.2-0.7,0.2-1.1c0-1.3-0.9-2.3-2.7-2.3C554.9,56.9,553.3,58.2,552.7,60.2z"/>
	</g>
	<g>
		<path class="st0" d="M516.4,84.3h1.2l1.8-7.9h-1.3l0.2-0.7h6.7l-0.5,2.1h-0.8l0.3-1.4h-3.8l-0.8,3.5h3.1l-0.2,0.7h-3.1l-0.9,3.7
			h3.8l0.3-1.4h0.8l-0.5,2.1h-6.5L516.4,84.3z"/>
		<path class="st0" d="M525.6,79.7h-1.1l0.2-0.7h1.8l-0.4,1.4c0.6-0.9,1.3-1.5,2.1-1.5c0.9,0,1.5,0.5,1.5,1.5
			c0.6-0.9,1.4-1.5,2.1-1.5c0.9,0,1.6,0.7,1.6,1.5c0,0.3-0.1,0.6-0.2,0.9l-0.6,2.1c-0.1,0.2-0.1,0.5-0.1,0.6c0,0.3,0.2,0.5,0.4,0.5
			c0.3,0,0.5-0.3,0.8-0.9l0.4,0.1c-0.3,0.8-0.7,1.3-1.4,1.3c-0.6,0-1.1-0.4-1.1-1c0-0.2,0.1-0.5,0.1-0.7l0.6-2.1
			c0.1-0.3,0.1-0.5,0.1-0.8c0-0.5-0.3-0.9-0.9-0.9c-0.8,0-1.9,0.9-2.3,2.6l-0.7,2.8H528l0.9-3.7c0.1-0.3,0.1-0.5,0.1-0.8
			c0-0.5-0.4-0.9-0.9-0.9c-0.8,0-2,0.9-2.4,2.6L525,85h-0.7L525.6,79.7z"/>
		<path class="st0" d="M533.4,87.1h0.9l1.8-7.4H535l0.2-0.7h1.8l-0.3,1.1c0.5-0.7,1.2-1.3,2.1-1.3c1.3,0,2.3,1,2.3,2.5
			c0,2.1-1.5,3.7-3.2,3.7c-1,0-1.8-0.5-2-1.4l-0.8,3.4h1.3l-0.2,0.7h-3L533.4,87.1z M540.3,81.5c0-1.2-0.6-1.9-1.6-1.9
			c-1.4,0-2.5,1.7-2.5,3.1c0,1,0.7,1.8,1.8,1.8C539.3,84.4,540.3,83,540.3,81.5z"/>
		<path class="st0" d="M542,84.1c0-0.2,0.1-0.4,0.1-0.6l1.9-8.2h-1.1l0.2-0.7h1.9l-2.1,8.8c0,0.2-0.1,0.5-0.1,0.6
			c0,0.3,0.2,0.5,0.4,0.5c0.3,0,0.5-0.3,0.8-0.9l0.4,0.1c-0.3,0.8-0.7,1.3-1.4,1.3C542.4,85.1,542,84.6,542,84.1z"/>
		<path class="st0" d="M545,82.6c0-1.9,1.5-3.6,3.4-3.6c1.6,0,2.5,1.2,2.5,2.5c0,1.9-1.5,3.6-3.4,3.6C545.9,85.1,545,83.9,545,82.6z
			 M550.1,81.5c0-1.1-0.8-1.9-1.8-1.9c-1.4,0-2.6,1.4-2.6,3c0,1.1,0.8,1.9,1.8,1.9C548.9,84.4,550.1,83,550.1,81.5z"/>
		<path class="st0" d="M549.7,87.1c0-0.3,0.2-0.6,0.6-0.6s0.6,0.3,0.6,0.7h0.1c0.3,0,1.1-0.5,2.4-2.1l-1.1-5.3h-1.1l0.2-0.7h1.6
			l0.9,5.2c1.1-1.5,2.3-3.1,2.5-4c-0.3-0.1-0.6-0.3-0.6-0.7c0-0.3,0.3-0.6,0.6-0.6c0.4,0,0.7,0.3,0.7,0.8c0,1-0.9,2.4-3,5.2
			c-1.8,2.3-2.7,2.9-3.5,2.9C550.1,87.8,549.7,87.5,549.7,87.1z"/>
		<path class="st0" d="M558.1,82.2c0,0.1,0,0.3,0,0.4c0,1.2,1,1.9,2,1.9c0.7,0,1.2-0.1,1.9-0.5l-0.2,0.8c-0.6,0.3-1.1,0.4-1.9,0.4
			c-1.4,0-2.6-0.9-2.6-2.5c0-2,1.6-3.7,3.3-3.7c1.3,0,2.2,0.8,2.2,2.1c0,0.4-0.1,0.7-0.2,1.2L558.1,82.2L558.1,82.2z M558.2,81.6
			h3.8c0.1-0.2,0.1-0.5,0.1-0.7c0-0.7-0.5-1.3-1.5-1.3C559.6,79.6,558.6,80.4,558.2,81.6z"/>
		<path class="st0" d="M564.8,79.7h-1.1l0.2-0.7h1.8l-0.4,1.6c0.8-1.1,1.5-1.7,2-1.7c0.5,0,0.7,0.3,0.7,0.6c0,0.4-0.3,0.7-0.7,0.7
			c-0.3,0-0.5-0.2-0.6-0.5c-0.5,0.3-1.5,1.2-1.9,2.6l-0.7,2.6h-0.7L564.8,79.7z"/>
	</g>
	<g>
		<path class="st0" d="M500.1,15.4h-1l0.2-0.7h2.9l-0.2,0.7h-1.2l0.2,7.3l3.9-6.8h0.3l0.8,6.8l3.8-7.3h-1.1l0.2-0.7h2.8l-0.2,0.7
			h-0.9l-4.6,8.7h-0.5l-0.8-6.6l-3.8,6.6h-0.5L500.1,15.4z"/>
		<path class="st0" d="M510.4,21.2c0,0.1,0,0.3,0,0.4c0,1.2,1,1.9,2,1.9c0.7,0,1.2-0.1,1.9-0.5l-0.2,0.8c-0.6,0.3-1.1,0.4-1.9,0.4
			c-1.4,0-2.6-0.9-2.6-2.5c0-2,1.6-3.7,3.3-3.7c1.3,0,2.2,0.8,2.2,2.1c0,0.4-0.1,0.7-0.2,1.2L510.4,21.2L510.4,21.2z M510.6,20.6
			h3.8c0.1-0.2,0.1-0.5,0.1-0.7c0-0.7-0.5-1.3-1.5-1.3C511.9,18.6,510.9,19.4,510.6,20.6z"/>
		<path class="st0" d="M518.2,21.6c0-2,1.5-3.7,3.2-3.7c1.1,0,1.8,0.6,1.9,1.5l0.3-1.5h0.7l-1.1,4.5c-0.1,0.2-0.1,0.5-0.1,0.6
			c0,0.3,0.2,0.5,0.4,0.5c0.3,0,0.5-0.3,0.8-0.9l0.4,0.1c-0.3,0.8-0.7,1.3-1.4,1.3c-0.6,0-1-0.4-1-0.9v-0.2
			c-0.5,0.7-1.3,1.2-2.1,1.2C519.1,24.1,518.2,23.1,518.2,21.6z M523,20.4c0-1.1-0.6-1.8-1.6-1.8c-1.4,0-2.4,1.5-2.4,3
			c0,1.1,0.5,1.8,1.5,1.8C522.1,23.4,523,21.7,523,20.4z"/>
		<path class="st0" d="M526.8,18.7h-1.1l0.2-0.7h1.8l-0.4,1.6c0.8-1.1,1.5-1.7,2-1.7c0.5,0,0.7,0.3,0.7,0.6c0,0.4-0.3,0.7-0.7,0.7
			c-0.3,0-0.5-0.2-0.6-0.5c-0.5,0.3-1.5,1.2-1.9,2.6l-0.7,2.6h-0.7L526.8,18.7z"/>
		<path class="st0" d="M530.4,21.2c0,0.1,0,0.3,0,0.4c0,1.2,1,1.9,2,1.9c0.7,0,1.2-0.1,1.9-0.5l-0.2,0.8c-0.6,0.3-1.1,0.4-1.9,0.4
			c-1.4,0-2.6-0.9-2.6-2.5c0-2,1.6-3.7,3.3-3.7c1.3,0,2.2,0.8,2.2,2.1c0,0.4-0.1,0.7-0.2,1.2L530.4,21.2L530.4,21.2z M530.6,20.6
			h3.8c0.1-0.2,0.1-0.5,0.1-0.7c0-0.7-0.5-1.3-1.5-1.3C531.9,18.6,531,19.4,530.6,20.6z"/>
		<path class="st0" d="M538.2,21.6c0-2,1.5-3.7,3.2-3.7c1.1,0,1.8,0.6,1.9,1.5l0.3-1.5h0.7l-1.1,4.5c-0.1,0.2-0.1,0.5-0.1,0.6
			c0,0.3,0.2,0.5,0.4,0.5c0.3,0,0.5-0.3,0.8-0.9l0.4,0.1c-0.3,0.8-0.7,1.3-1.4,1.3c-0.6,0-1-0.4-1-0.9v-0.2
			c-0.5,0.7-1.3,1.2-2.1,1.2C539.1,24.1,538.2,23.1,538.2,21.6z M543.1,20.4c0-1.1-0.6-1.8-1.6-1.8c-1.4,0-2.4,1.5-2.4,3
			c0,1.1,0.5,1.8,1.5,1.8C542.1,23.4,543.1,21.7,543.1,20.4z"/>
	</g>
</g>
<g>
	<g>
		<g>
			<path class="st11" d="M473.9,6h-0.6c-0.1,0-0.2,0-0.2-0.1l-0.9-1.3c0,0-0.1-0.1-0.1-0.1s-0.1,0-0.2,0h-0.3V6H471V2.2h1.1
				c0.2,0,0.5,0,0.6,0.1c0.2,0.1,0.3,0.1,0.4,0.2c0.1,0.1,0.2,0.2,0.3,0.3c0.1,0.1,0.1,0.3,0.1,0.4c0,0.1,0,0.3-0.1,0.4
				c0,0.1-0.1,0.2-0.2,0.3c-0.1,0.1-0.2,0.2-0.3,0.2c-0.1,0.1-0.2,0.1-0.4,0.2c0.1,0,0.1,0.1,0.2,0.2L473.9,6z M472.1,4
				c0.1,0,0.3,0,0.4-0.1s0.2-0.1,0.3-0.1c0.1-0.1,0.1-0.1,0.2-0.2c0-0.1,0.1-0.2,0.1-0.3c0-0.2-0.1-0.4-0.2-0.5
				c-0.1-0.1-0.3-0.2-0.6-0.2h-0.5V4L472.1,4L472.1,4z"/>
		</g>
		<path class="st11" d="M472.3,0c-2.3,0-4.2,1.9-4.2,4.2s1.9,4.2,4.2,4.2c2.3,0,4.2-1.9,4.2-4.2S474.6,0,472.3,0z M472.3,7.8
			c-2,0-3.6-1.6-3.6-3.6s1.6-3.6,3.6-3.6c2,0,3.6,1.6,3.6,3.6S474.3,7.8,472.3,7.8z"/>
	</g>
	<g>
		<g>
			<polygon class="st11" points="441.8,45.1 441.8,69.7 417.2,69.7 			"/>
			<polygon class="st11" points="395.5,23.4 420.1,23.4 395.5,48 			"/>
			<polygon class="st12" points="395.5,0.3 464.9,0.3 464.9,69.7 447.6,69.7 447.6,31.1 409,69.7 395.5,69.7 395.5,56.2 434.1,17.6 
				395.5,17.6 			"/>
		</g>
		<path class="st11" d="M405,75.8c0.2-0.3,0.3-0.3,0.6-0.3h2.2v11H405v-6.8h0l-2.3,2.9H401c-0.3,0-0.4-0.1-0.5-0.2l-2.1-2.7h0v6.8
			h-2.8v-11h2.4c0.3,0,0.4,0,0.6,0.3l3.2,4h0.1L405,75.8z M413.1,75.5h2.9c0.2,0,0.3,0,0.3,0.3l4.4,10.8h-2.8c-0.2,0-0.3,0-0.4-0.3
			l-0.6-1.6h-4.4l-0.5,1.6c-0.1,0.2-0.1,0.3-0.3,0.3h-2.7L413.1,75.5z M414.6,78.3c-0.1,0.6-0.4,1.6-1,3.1l-0.3,0.9h2.7l-0.3-0.9
			C415.1,79.8,414.8,78.9,414.6,78.3L414.6,78.3z M421.8,86.5v-11h4c2.3,0,4,0.5,5.2,1.6c0.9,0.9,1.4,2.2,1.4,3.9
			c0,1.7-0.5,3-1.4,3.9c-1.2,1.2-2.9,1.6-5.2,1.6C425.9,86.5,421.8,86.5,421.8,86.5z M425.8,84c1.3,0,2.2-0.1,2.8-0.7
			c0.5-0.4,0.8-1.2,0.8-2.3c0-1.1-0.3-1.9-0.8-2.3c-0.6-0.5-1.5-0.7-2.8-0.7h-1V84L425.8,84L425.8,84z M442.6,75.5v2.4H437v1.8h5.1
			v2.4H437v1.9h5.8v2.4h-8.7v-11L442.6,75.5L442.6,75.5z M451.6,86.5h-3v-11h3V86.5z M456.7,75.5c0.3,0,0.4,0,0.5,0.2l3.2,4
			c0.8,1,1.5,1.9,1.8,2.4h0v-6.5h2.8v11h-2.1c-0.3,0-0.4,0-0.5-0.2l-3.2-4c-0.7-0.9-1.5-1.9-1.8-2.4h0v6.6h-2.8v-11L456.7,75.5
			L456.7,75.5z M395.5,89h5.2c1.6,0,2.5,0.3,3.2,0.9c0.5,0.5,0.8,1.2,0.8,1.9c0,0.9-0.4,1.7-1,2.2c1,0.4,1.7,1.3,1.7,2.6
			c0,1-0.3,1.8-0.9,2.3c-0.7,0.7-1.9,1-3.5,1h-5.4V89z M401.1,93.4c0.2,0,0.3,0,0.4-0.2c0.1-0.2,0.2-0.6,0.2-0.8
			c0-0.3-0.1-0.6-0.2-0.7c-0.2-0.2-0.5-0.2-0.9-0.2h-2.1v2C398.5,93.4,401.1,93.4,401.1,93.4z M398.5,97.6h2.6c0.5,0,0.8-0.1,1-0.3
			c0.1-0.1,0.3-0.4,0.3-0.8c0-0.3-0.1-0.6-0.2-0.7c-0.2-0.2-0.5-0.3-1-0.3h-2.6V97.6z M410.7,100h-3V89h4.8c1.8,0,3.1,0.3,3.8,1
			c0.6,0.6,0.9,1.5,0.9,2.6c0,1.6-0.8,2.8-1.8,3.4l2.5,4H415c-0.3,0-0.3,0-0.5-0.3l-1.7-2.9c-0.2-0.3-0.2-0.3-0.5-0.3h-1.6
			L410.7,100L410.7,100z M413.5,94.2c0.3,0,0.4-0.1,0.6-0.3c0.2-0.3,0.3-0.8,0.3-1.1c0-0.4-0.1-0.8-0.3-1c-0.3-0.3-0.7-0.3-1.4-0.3
			h-1.9v2.7L413.5,94.2L413.5,94.2z M423.1,100h-3V89h3C423.1,89,423.1,100,423.1,100z M428.6,91.4h-3.7V89h10.3v2.4h-3.7v8.6h-3
			L428.6,91.4L428.6,91.4z M439.1,89h2.9c0.2,0,0.3,0,0.3,0.3l4.4,10.8H444c-0.2,0-0.3,0-0.4-0.3l-0.6-1.6h-4.4l-0.5,1.6
			c-0.1,0.2-0.1,0.3-0.3,0.3H435L439.1,89z M440.7,91.8c-0.1,0.6-0.4,1.6-1,3.1l-0.3,0.9h2.7l-0.3-0.9
			C441.2,93.3,440.9,92.4,440.7,91.8L440.7,91.8z M451.6,100h-3V89h3V100z M456.7,89c0.3,0,0.4,0,0.5,0.2l3.2,4
			c0.8,1,1.5,1.9,1.8,2.4h0V89h2.8v11h-2.1c-0.3,0-0.4,0-0.5-0.2l-3.2-4c-0.7-0.9-1.5-1.9-1.8-2.4h0v6.6h-2.8V89L456.7,89L456.7,89z
			"/>
	</g>
</g>
</svg>
